<svg width="20" height="21" viewBox="0 0 20 21" fill="none" xmlns="http://www.w3.org/2000/svg">
<path d="M1.484 3.071C1.304 3.071 1.16 3.017 1.052 2.909C0.944 2.801 0.89 2.657 0.89 2.477V1.451C0.89 1.271 0.944 1.127 1.052 1.019C1.16 0.892999 1.304 0.829999 1.484 0.829999H2.51C2.69 0.829999 2.834 0.892999 2.942 1.019C3.068 1.127 3.131 1.271 3.131 1.451V2.477C3.131 2.657 3.068 2.801 2.942 2.909C2.834 3.017 2.69 3.071 2.51 3.071H1.484ZM1.781 20C1.601 20 1.457 19.946 1.349 19.838C1.241 19.73 1.187 19.586 1.187 19.406V6.554C1.187 6.374 1.241 6.23 1.349 6.122C1.457 6.014 1.601 5.96 1.781 5.96H2.24C2.42 5.96 2.564 6.014 2.672 6.122C2.78 6.23 2.834 6.374 2.834 6.554V19.406C2.834 19.586 2.78 19.73 2.672 19.838C2.564 19.946 2.42 20 2.24 20H1.781ZM13.2847 20.27C11.4127 20.27 9.95472 19.703 8.91072 18.569C7.88472 17.417 7.34472 15.932 7.29072 14.114L7.26372 12.98L7.29072 11.846C7.34472 10.028 7.88472 8.552 8.91072 7.418C9.95472 6.266 11.4127 5.69 13.2847 5.69C15.1567 5.69 16.6057 6.266 17.6317 7.418C18.6757 8.552 19.2247 10.028 19.2787 11.846C19.2967 12.026 19.3057 12.404 19.3057 12.98C19.3057 13.556 19.2967 13.934 19.2787 14.114C19.2247 15.932 18.6757 17.417 17.6317 18.569C16.6057 19.703 15.1567 20.27 13.2847 20.27ZM13.2847 18.704C14.5627 18.704 15.5887 18.299 16.3627 17.489C17.1547 16.661 17.5777 15.491 17.6317 13.979C17.6497 13.799 17.6587 13.466 17.6587 12.98C17.6587 12.494 17.6497 12.161 17.6317 11.981C17.5777 10.469 17.1547 9.308 16.3627 8.498C15.5887 7.67 14.5627 7.256 13.2847 7.256C12.0067 7.256 10.9717 7.67 10.1797 8.498C9.40572 9.308 8.99172 10.469 8.93772 11.981L8.91072 12.98L8.93772 13.979C8.99172 15.491 9.40572 16.661 10.1797 17.489C10.9717 18.299 12.0067 18.704 13.2847 18.704Z" fill="#FFAB2B"/>
</svg>
