<svg width="111" height="32" viewBox="0 0 111 32" fill="none" xmlns="http://www.w3.org/2000/svg">
<path d="M2.484 8.071C2.304 8.071 2.16 8.017 2.052 7.909C1.944 7.801 1.89 7.657 1.89 7.477V6.451C1.89 6.271 1.944 6.127 2.052 6.019C2.16 5.893 2.304 5.83 2.484 5.83H3.51C3.69 5.83 3.834 5.893 3.942 6.019C4.068 6.127 4.131 6.271 4.131 6.451V7.477C4.131 7.657 4.068 7.801 3.942 7.909C3.834 8.017 3.69 8.071 3.51 8.071H2.484ZM2.781 25C2.601 25 2.457 24.946 2.349 24.838C2.241 24.73 2.187 24.586 2.187 24.406V11.554C2.187 11.374 2.241 11.23 2.349 11.122C2.457 11.014 2.601 10.96 2.781 10.96H3.24C3.42 10.96 3.564 11.014 3.672 11.122C3.78 11.23 3.834 11.374 3.834 11.554V24.406C3.834 24.586 3.78 24.73 3.672 24.838C3.564 24.946 3.42 25 3.24 25H2.781ZM14.2847 25.27C12.4127 25.27 10.9547 24.703 9.91072 23.569C8.88472 22.417 8.34472 20.932 8.29072 19.114L8.26372 17.98L8.29072 16.846C8.34472 15.028 8.88472 13.552 9.91072 12.418C10.9547 11.266 12.4127 10.69 14.2847 10.69C16.1567 10.69 17.6057 11.266 18.6317 12.418C19.6757 13.552 20.2247 15.028 20.2787 16.846C20.2967 17.026 20.3057 17.404 20.3057 17.98C20.3057 18.556 20.2967 18.934 20.2787 19.114C20.2247 20.932 19.6757 22.417 18.6317 23.569C17.6057 24.703 16.1567 25.27 14.2847 25.27ZM14.2847 23.704C15.5627 23.704 16.5887 23.299 17.3627 22.489C18.1547 21.661 18.5777 20.491 18.6317 18.979C18.6497 18.799 18.6587 18.466 18.6587 17.98C18.6587 17.494 18.6497 17.161 18.6317 16.981C18.5777 15.469 18.1547 14.308 17.3627 13.498C16.5887 12.67 15.5627 12.256 14.2847 12.256C13.0067 12.256 11.9717 12.67 11.1797 13.498C10.4057 14.308 9.99172 15.469 9.93772 16.981L9.91072 17.98L9.93772 18.979C9.99172 20.491 10.4057 21.661 11.1797 22.489C11.9717 23.299 13.0067 23.704 14.2847 23.704Z" fill="#FFAB2B"/>
<path d="M25.04 25C24.9067 25 24.7933 24.9533 24.7 24.86C24.6067 24.7667 24.56 24.6533 24.56 24.52V11.5C24.56 11.3533 24.6 11.2333 24.68 11.14C24.7733 11.0467 24.8933 11 25.04 11H33.72C33.8667 11 33.9867 11.0467 34.08 11.14C34.1733 11.2333 34.22 11.3533 34.22 11.5V12.9C34.22 13.0467 34.1733 13.1667 34.08 13.26C33.9867 13.34 33.8667 13.38 33.72 13.38H27.3V17.18H33.32C33.4667 17.18 33.5867 17.2267 33.68 17.32C33.7733 17.4133 33.82 17.5333 33.82 17.68V19.08C33.82 19.2267 33.7733 19.3467 33.68 19.44C33.5867 19.52 33.4667 19.56 33.32 19.56H27.3V24.52C27.3 24.6667 27.2533 24.7867 27.16 24.88C27.0667 24.96 26.9467 25 26.8 25H25.04ZM37.2517 25C37.1184 25 37.0051 24.9533 36.9117 24.86C36.8184 24.7667 36.7717 24.6533 36.7717 24.52V11.48C36.7717 11.3333 36.8184 11.22 36.9117 11.14C37.0051 11.0467 37.1184 11 37.2517 11H39.1317C39.2784 11 39.3917 11.0467 39.4717 11.14C39.5651 11.22 39.6117 11.3333 39.6117 11.48V24.52C39.6117 24.6533 39.5651 24.7667 39.4717 24.86C39.3917 24.9533 39.2784 25 39.1317 25H37.2517ZM43.4283 25C43.2949 25 43.1816 24.9533 43.0883 24.86C42.9949 24.7667 42.9483 24.6533 42.9483 24.52V11.5C42.9483 11.3533 42.9883 11.2333 43.0683 11.14C43.1616 11.0467 43.2816 11 43.4283 11H44.9683C45.1283 11 45.2483 11.0333 45.3283 11.1C45.4083 11.1533 45.4816 11.2267 45.5483 11.32L51.3083 20.28V11.5C51.3083 11.3533 51.3483 11.2333 51.4283 11.14C51.5216 11.0467 51.6416 11 51.7883 11H53.4683C53.6149 11 53.7349 11.0467 53.8283 11.14C53.9216 11.2333 53.9683 11.3533 53.9683 11.5V24.5C53.9683 24.6467 53.9216 24.7667 53.8283 24.86C53.7349 24.9533 53.6216 25 53.4883 25H51.9283C51.7016 25 51.5083 24.8933 51.3483 24.68L45.6083 15.92V24.52C45.6083 24.6667 45.5616 24.7867 45.4683 24.88C45.3749 24.96 45.2549 25 45.1083 25H43.4283ZM56.4289 25C56.3222 25 56.2222 24.96 56.1289 24.88C56.0489 24.8 56.0089 24.7 56.0089 24.58L56.0489 24.4L60.8689 11.5C60.9622 11.1667 61.1956 11 61.5689 11H63.7489C64.0956 11 64.3289 11.1667 64.4489 11.5L69.2689 24.4C69.2822 24.44 69.2889 24.5 69.2889 24.58C69.2889 24.7 69.2489 24.8 69.1689 24.88C69.0889 24.96 68.9956 25 68.8889 25H67.1489C66.9756 25 66.8422 24.96 66.7489 24.88C66.6556 24.8 66.5956 24.7133 66.5689 24.62L65.6289 22.18H59.6889L58.7489 24.62C58.6422 24.8733 58.4489 25 58.1689 25H56.4289ZM64.9289 19.88L62.6489 13.7L60.3889 19.88H64.9289ZM71.8361 25C71.7028 25 71.5894 24.9533 71.4961 24.86C71.4028 24.7667 71.3561 24.6533 71.3561 24.52V11.5C71.3561 11.3533 71.3961 11.2333 71.4761 11.14C71.5694 11.0467 71.6894 11 71.8361 11H73.3761C73.5361 11 73.6561 11.0333 73.7361 11.1C73.8161 11.1533 73.8894 11.2267 73.9561 11.32L79.7161 20.28V11.5C79.7161 11.3533 79.7561 11.2333 79.8361 11.14C79.9294 11.0467 80.0494 11 80.1961 11H81.8761C82.0228 11 82.1428 11.0467 82.2361 11.14C82.3294 11.2333 82.3761 11.3533 82.3761 11.5V24.5C82.3761 24.6467 82.3294 24.7667 82.2361 24.86C82.1428 24.9533 82.0294 25 81.8961 25H80.3361C80.1094 25 79.9161 24.8933 79.7561 24.68L74.0161 15.92V24.52C74.0161 24.6667 73.9694 24.7867 73.8761 24.88C73.7828 24.96 73.6628 25 73.5161 25H71.8361ZM91.0967 25.2C89.2567 25.2 87.8301 24.7267 86.8167 23.78C85.8167 22.8333 85.2834 21.5 85.2167 19.78C85.2034 19.42 85.1967 18.8333 85.1967 18.02C85.1967 17.1933 85.2034 16.5933 85.2167 16.22C85.2834 14.5133 85.8234 13.1867 86.8367 12.24C87.8634 11.28 89.2834 10.8 91.0967 10.8C92.2834 10.8 93.3167 11.0067 94.1967 11.42C95.0767 11.82 95.7567 12.3733 96.2367 13.08C96.7167 13.7733 96.9701 14.56 96.9967 15.44V15.48C96.9967 15.5867 96.9501 15.68 96.8567 15.76C96.7767 15.8267 96.6834 15.86 96.5767 15.86H94.6767C94.5167 15.86 94.3967 15.8267 94.3167 15.76C94.2367 15.6933 94.1701 15.5667 94.1167 15.38C93.9034 14.54 93.5501 13.9533 93.0567 13.62C92.5634 13.2733 91.9034 13.1 91.0767 13.1C89.1567 13.1 88.1567 14.1733 88.0767 16.32C88.0634 16.68 88.0567 17.2333 88.0567 17.98C88.0567 18.7267 88.0634 19.2933 88.0767 19.68C88.1567 21.8267 89.1567 22.9 91.0767 22.9C91.9034 22.9 92.5634 22.7267 93.0567 22.38C93.5634 22.0333 93.9167 21.4467 94.1167 20.62C94.1567 20.4333 94.2167 20.3067 94.2967 20.24C94.3901 20.1733 94.5167 20.14 94.6767 20.14H96.5767C96.6967 20.14 96.7967 20.18 96.8767 20.26C96.9701 20.34 97.0101 20.44 96.9967 20.56C96.9701 21.44 96.7167 22.2333 96.2367 22.94C95.7567 23.6333 95.0767 24.1867 94.1967 24.6C93.3167 25 92.2834 25.2 91.0967 25.2ZM100.049 25C99.9153 25 99.8019 24.9533 99.7086 24.86C99.6153 24.7667 99.5686 24.6533 99.5686 24.52V11.5C99.5686 11.3533 99.6086 11.2333 99.6886 11.14C99.7819 11.0467 99.9019 11 100.049 11H108.849C108.995 11 109.115 11.0467 109.209 11.14C109.302 11.2333 109.349 11.3533 109.349 11.5V12.82C109.349 12.9667 109.302 13.0867 109.209 13.18C109.115 13.26 108.995 13.3 108.849 13.3H102.269V16.84H108.409C108.555 16.84 108.675 16.8867 108.769 16.98C108.862 17.06 108.909 17.1733 108.909 17.32V18.56C108.909 18.7067 108.862 18.8267 108.769 18.92C108.675 19 108.555 19.04 108.409 19.04H102.269V22.7H109.009C109.155 22.7 109.275 22.7467 109.369 22.84C109.462 22.9333 109.509 23.0533 109.509 23.2V24.52C109.509 24.6667 109.462 24.7867 109.369 24.88C109.275 24.96 109.155 25 109.009 25H100.049Z" fill="#FFAB2B"/>
</svg>
