<svg width="355" height="250" viewBox="0 0 355 250" fill="none" xmlns="http://www.w3.org/2000/svg">
<path opacity="0.1" d="M307.363 250C318.711 250 327.911 247.508 327.911 244.435C327.911 241.361 318.711 238.87 307.363 238.87C296.015 238.87 286.815 241.361 286.815 244.435C286.815 247.508 296.015 250 307.363 250Z" fill="#FFAB2B"/>
<path opacity="0.1" d="M340.794 221.326C333.042 227.763 322.012 230.427 311.344 232.11L309.549 232.384C298.407 234.047 287.141 234.933 275.837 235.471C269.789 235.764 263.74 235.972 257.692 236.156L252.952 236.297C246.797 236.479 240.631 236.659 234.453 236.835C228.405 237.007 222.357 237.169 216.308 237.319C208.562 237.509 200.816 237.666 193.07 237.791C187.021 237.887 180.973 237.952 174.925 237.989C167.176 238.033 159.43 238.018 151.686 237.944C145.633 237.882 139.585 237.776 133.541 237.625C125.791 237.426 118.044 237.134 110.302 236.749C105.048 236.492 99.7963 236.183 94.548 235.822L92.1573 235.653C69.6287 234.028 46.6958 231.112 26.9812 221.897L26.4496 221.645C26.1854 221.521 25.9212 221.397 25.657 221.266C22.0372 219.534 18.5699 217.499 15.292 215.183C9.46322 211.021 4.64998 205.942 2.10648 199.916C-1.87908 190.465 0.2283 179.841 4.7805 170.601C9.3327 161.36 16.1674 153.018 22.0789 144.315C23.8106 141.766 25.4532 139.121 26.9812 136.41C36.5313 119.403 41.2682 99.7235 31.2565 83.3354C29.935 81.2459 28.5081 79.2252 26.9812 77.281C24.5396 74.0945 22.0566 70.9081 20.379 67.3806C16.4666 59.1722 17.307 49.9409 18.7332 41.1717C20.6432 29.5123 24.1449 16.9544 35.0893 9.67003C46.4443 2.1053 62.5616 2.48768 76.6544 5.20894C98.5654 9.41193 118.789 18.2098 139.204 26.1442C159.619 34.0786 181.005 41.3342 203.451 42.1149C208.272 42.2801 213.1 42.1044 217.897 41.5891C224.292 40.9313 230.6 39.6016 236.717 37.6219C245.551 34.7095 253.589 30.3281 259.548 24.2387C272.329 11.2219 296.347 10.2372 313.665 18.0983C330.19 25.5993 340.876 41.4744 340.087 57.3304C339.189 74.9804 325.985 89.4917 313.885 104.376C312.417 106.179 310.969 107.989 309.558 109.812C308.771 110.829 307.999 111.849 307.241 112.871C305.913 114.675 304.631 116.488 303.421 118.323C297.239 127.733 292.868 139.035 297.124 149.194C299.512 154.882 304.067 159.222 309.558 163.01C321.862 171.496 338.845 177.206 346.485 189.085C353.069 199.324 350.63 213.144 340.794 221.326Z" fill="#FFAB2B"/>
<g opacity="0.1">
<path d="M176.739 175.206C176.752 175.506 176.774 175.799 176.806 176.086C179.269 175.097 181.688 174.034 184.061 172.897C185.327 172.727 186.504 172.148 187.414 171.245C188.108 170.894 188.798 170.527 189.482 170.16C189.327 169.83 189.151 169.511 188.956 169.203C187.623 167.083 185.596 165.756 183.364 165.829C181.131 165.902 179.2 167.36 178.006 169.557C177.09 171.292 176.653 173.243 176.739 175.206Z" fill="#3F3D56"/>
<path d="M176.375 164.053C176.423 166.007 176.986 167.913 178.006 169.577C179.342 171.691 181.369 173.018 183.601 172.945C183.757 172.945 183.918 172.922 184.061 172.909C185.327 172.74 186.504 172.16 187.414 171.257C188.032 170.665 188.552 169.979 188.956 169.223C190.773 165.692 190.636 161.464 188.595 158.06C187.259 155.939 185.232 154.612 183 154.686C180.767 154.759 178.839 156.216 177.645 158.414C176.73 160.146 176.291 162.093 176.375 164.053Z" fill="#3F3D56"/>
<path d="M183.236 161.792C187.059 161.666 190.025 157.477 189.86 152.437C189.696 147.397 186.464 143.414 182.641 143.54C178.818 143.666 175.853 147.855 176.017 152.895C176.181 157.935 179.413 161.919 183.236 161.792Z" fill="#3F3D56"/>
<path d="M182.873 150.641C186.696 150.515 189.662 146.326 189.497 141.286C189.333 136.246 186.101 132.263 182.278 132.389C178.455 132.515 175.49 136.704 175.654 141.744C175.818 146.784 179.05 150.768 182.873 150.641Z" fill="#3F3D56"/>
<path d="M182.51 139.487C186.333 139.361 189.298 135.172 189.134 130.132C188.97 125.092 185.738 121.108 181.915 121.235C178.092 121.361 175.127 125.549 175.291 130.59C175.455 135.63 178.687 139.613 182.51 139.487Z" fill="#3F3D56"/>
<path d="M205.648 53.1884C206.554 51.945 207.373 50.6396 208.098 49.2815L189.814 46.8767L209.485 46.3728C213.027 37.8928 212.944 28.3183 209.257 19.9014L183.32 34.5564L207.069 15.7393C200.48 5.18065 188.599 -0.802193 176.258 0.223318C163.918 1.24883 153.172 9.11193 148.389 20.6156C143.607 32.1193 145.585 45.3481 153.518 54.9234C152.107 56.8592 150.906 58.9421 149.937 61.1362L173.943 72.7071L148.496 65.0336C145.255 75.8418 147.65 87.5676 154.864 96.2093C144.625 110.253 146.823 129.864 159.912 141.256C173.001 152.648 192.585 151.995 204.897 139.756C217.209 127.516 218.114 107.802 206.974 94.4711C216.041 82.0496 215.492 64.9933 205.648 53.1884Z" fill="#FFAB2B"/>
<path opacity="0.1" d="M147.096 75.788C147.328 83.2792 150.065 90.4719 154.864 96.1997C144.622 110.241 146.816 129.853 159.903 141.248C172.99 152.642 192.575 151.993 204.889 139.755C217.204 127.518 218.111 107.804 206.974 94.4711C211.233 88.6474 146.976 72.0405 147.096 75.788Z" fill="black"/>
</g>
<g opacity="0.1">
<path d="M103.631 233.81C103.631 234.02 103.609 234.231 103.583 234.448C101.822 233.746 100.092 232.993 98.3917 232.19C97.4861 232.071 96.6435 231.66 95.9916 231.018C95.495 230.764 95.0017 230.507 94.5114 230.245C94.6221 230.011 94.7475 229.785 94.8871 229.568C95.842 228.053 97.2872 227.108 98.8851 227.159C100.483 227.21 101.865 228.245 102.705 229.81C103.363 231.037 103.683 232.418 103.631 233.81Z" fill="#3F3D56"/>
<path d="M103.88 225.859C103.848 227.252 103.448 228.611 102.721 229.798C101.766 231.305 100.318 232.254 98.7228 232.203L98.4045 232.177C97.4988 232.059 96.6563 231.647 96.0044 231.005C95.5616 230.584 95.1887 230.094 94.8998 229.555C93.6016 227.041 93.6956 224.031 95.1481 221.604C96.103 220.09 97.5514 219.145 99.1461 219.196C100.741 219.247 102.126 220.282 102.982 221.847C103.632 223.08 103.942 224.465 103.88 225.859Z" fill="#3F3D56"/>
<path d="M104.137 217.923C104.25 214.331 102.125 211.349 99.3909 211.262C96.6568 211.176 94.3487 214.017 94.2356 217.609C94.1225 221.201 96.2472 224.183 98.9813 224.27C101.715 224.356 104.024 221.515 104.137 217.923Z" fill="#3F3D56"/>
<path d="M104.384 209.974C104.497 206.382 102.372 203.4 99.6383 203.313C96.9042 203.226 94.5961 206.068 94.4829 209.66C94.3698 213.252 96.4946 216.234 99.2287 216.32C101.963 216.407 104.271 213.566 104.384 209.974Z" fill="#3F3D56"/>
<path d="M104.635 202.021C104.748 198.429 102.623 195.447 99.8889 195.361C97.1548 195.274 94.8467 198.115 94.7336 201.707C94.6205 205.299 96.7452 208.281 99.4793 208.368C102.213 208.454 104.522 205.613 104.635 202.021Z" fill="#3F3D56"/>
<path d="M82.8547 146.867C82.2056 145.98 81.6175 145.051 81.0944 144.084L94.1708 142.34L80.098 142.021C77.5561 135.979 77.6068 129.152 80.2381 123.149L98.8055 133.572L81.801 120.172C86.4914 112.611 94.9947 108.308 103.842 109.021C112.689 109.733 120.4 115.34 123.829 123.555C127.258 131.77 125.832 141.218 120.133 148.045C121.146 149.424 122.007 150.908 122.702 152.473L105.538 160.74L123.736 155.245C126.063 162.948 124.361 171.308 119.21 177.478C126.549 187.477 124.998 201.457 115.647 209.591C106.296 217.726 92.2849 217.282 83.4639 208.571C74.6428 199.861 73.9743 185.81 81.9283 176.296C75.4332 167.448 75.8159 155.289 82.8547 146.87V146.867Z" fill="#FFAB2B"/>
<path opacity="0.1" d="M124.745 162.921C124.586 168.26 122.635 173.389 119.21 177.478C126.549 187.477 124.998 201.457 115.647 209.591C106.296 217.726 92.2849 217.282 83.4639 208.571C74.6428 199.861 73.9743 185.81 81.9283 176.296C78.8757 172.143 124.834 160.248 124.745 162.921Z" fill="black"/>
</g>
<g opacity="0.1">
<path d="M269.654 192.698C269.654 192.912 269.632 193.119 269.609 193.337C267.846 192.634 266.115 191.881 264.418 191.078C263.511 190.959 262.668 190.548 262.014 189.906C261.521 189.654 261.024 189.395 260.534 189.133C260.646 188.9 260.771 188.674 260.91 188.456C261.865 186.942 263.31 185.996 264.908 186.047C266.506 186.098 267.887 187.133 268.728 188.698C269.386 189.925 269.705 191.306 269.654 192.698Z" fill="#3F3D56"/>
<path d="M269.921 184.747C269.889 186.14 269.488 187.499 268.759 188.686C267.804 190.193 266.359 191.142 264.761 191.091L264.443 191.065C263.537 190.946 262.693 190.535 262.04 189.893C261.598 189.471 261.226 188.981 260.935 188.443C259.637 185.929 259.731 182.92 261.183 180.492C262.138 178.981 263.587 178.033 265.182 178.084C266.776 178.135 268.164 179.17 269.017 180.735C269.67 181.968 269.982 183.353 269.921 184.747Z" fill="#3F3D56"/>
<path d="M270.17 176.809C270.283 173.217 268.158 170.235 265.424 170.148C262.69 170.061 260.382 172.903 260.269 176.495C260.156 180.086 262.281 183.069 265.015 183.155C267.749 183.242 270.057 180.4 270.17 176.809Z" fill="#3F3D56"/>
<path d="M270.421 168.859C270.534 165.267 268.409 162.285 265.675 162.199C262.941 162.112 260.633 164.954 260.52 168.545C260.406 172.137 262.531 175.119 265.265 175.206C267.999 175.293 270.308 172.451 270.421 168.859Z" fill="#3F3D56"/>
<path d="M270.671 160.91C270.784 157.318 268.66 154.336 265.925 154.25C263.191 154.163 260.883 157.004 260.77 160.596C260.657 164.188 262.782 167.17 265.516 167.257C268.25 167.343 270.558 164.502 270.671 160.91Z" fill="#3F3D56"/>
<path d="M248.877 105.755C248.228 104.87 247.64 103.94 247.12 102.973L260.197 101.244L246.124 100.903C243.583 94.8604 243.633 88.0351 246.261 82.0306L264.828 92.4536L247.824 79.0599C252.506 71.4797 261.017 67.1605 269.876 67.868C278.735 68.5755 286.458 74.1912 289.887 82.4191C293.315 90.6471 291.875 100.108 286.156 106.933C287.167 108.312 288.027 109.797 288.721 111.361L271.557 119.628L289.756 114.133C292.086 121.835 290.384 130.196 285.229 136.363C292.57 146.36 291.02 160.34 281.67 168.474C272.32 176.608 258.309 176.164 249.489 167.454C240.669 158.743 240.002 144.693 247.957 135.181C241.462 126.333 241.845 114.174 248.884 105.755H248.877Z" fill="#FFAB2B"/>
<path opacity="0.1" d="M290.771 121.809C290.612 127.148 288.66 132.276 285.232 136.363C292.572 146.36 291.021 160.339 281.671 168.473C272.321 176.606 258.311 176.162 249.492 167.452C240.672 158.743 240.004 144.693 247.957 135.181C244.902 131.031 290.854 119.133 290.771 121.809Z" fill="black"/>
</g>
<path d="M61.6438 242.295C71.5736 242.295 79.6233 240.761 79.6233 238.87C79.6233 236.978 71.5736 235.445 61.6438 235.445C51.7141 235.445 43.6644 236.978 43.6644 238.87C43.6644 240.761 51.7141 242.295 61.6438 242.295Z" fill="#FFAB2B"/>
<path d="M61.2158 240.582C62.3979 240.582 63.3562 239.432 63.3562 238.014C63.3562 236.595 62.3979 235.445 61.2158 235.445C60.0336 235.445 59.0753 236.595 59.0753 238.014C59.0753 239.432 60.0336 240.582 61.2158 240.582Z" fill="#3F3D56"/>
<path d="M61.2158 237.158C62.3979 237.158 63.3562 236.008 63.3562 234.589C63.3562 233.171 62.3979 232.021 61.2158 232.021C60.0336 232.021 59.0753 233.171 59.0753 234.589C59.0753 236.008 60.0336 237.158 61.2158 237.158Z" fill="#3F3D56"/>
<path d="M61.2158 233.733C62.3979 233.733 63.3562 232.583 63.3562 231.164C63.3562 229.746 62.3979 228.596 61.2158 228.596C60.0336 228.596 59.0753 229.746 59.0753 231.164C59.0753 232.583 60.0336 233.733 61.2158 233.733Z" fill="#3F3D56"/>
<path d="M61.2158 230.308C62.3979 230.308 63.3562 229.158 63.3562 227.74C63.3562 226.321 62.3979 225.171 61.2158 225.171C60.0336 225.171 59.0753 226.321 59.0753 227.74C59.0753 229.158 60.0336 230.308 61.2158 230.308Z" fill="#3F3D56"/>
<path d="M61.2158 226.884C62.3979 226.884 63.3562 225.734 63.3562 224.315C63.3562 222.897 62.3979 221.747 61.2158 221.747C60.0336 221.747 59.0753 222.897 59.0753 224.315C59.0753 225.734 60.0336 226.884 61.2158 226.884Z" fill="#3F3D56"/>
<path d="M61.2158 223.459C62.3979 223.459 63.3562 222.309 63.3562 220.89C63.3562 219.472 62.3979 218.322 61.2158 218.322C60.0336 218.322 59.0753 219.472 59.0753 220.89C59.0753 222.309 60.0336 223.459 61.2158 223.459Z" fill="#3F3D56"/>
<path d="M61.2158 220.034C62.3979 220.034 63.3562 218.884 63.3562 217.466C63.3562 216.047 62.3979 214.897 61.2158 214.897C60.0336 214.897 59.0753 216.047 59.0753 217.466C59.0753 218.884 60.0336 220.034 61.2158 220.034Z" fill="#3F3D56"/>
<path d="M69.7175 194.506C70.0099 194.137 70.2765 193.749 70.5155 193.345L64.8811 192.429L70.9743 192.477C72.1553 189.937 72.2265 187.029 71.1713 184.436L62.9943 188.626L70.5349 183.141C68.6078 179.857 64.9862 177.91 61.1476 178.094C57.3091 178.278 53.8955 180.563 52.2998 184.015C50.704 187.468 51.1929 191.512 53.5669 194.496C53.1113 195.07 52.7192 195.691 52.3974 196.347L59.7118 200.099L51.9128 197.515C50.7998 200.763 51.4219 204.346 53.5669 207.042C50.2557 211.202 50.7374 217.176 54.6734 220.766C58.6095 224.356 64.6782 224.356 68.6143 220.766C72.5503 217.176 73.032 211.202 69.7207 207.042C72.65 203.36 72.65 198.178 69.7207 194.496L69.7175 194.506Z" fill="#FFAB2B"/>
<path opacity="0.1" d="M51.37 200.494C51.3662 202.797 52.1403 205.034 53.5669 206.843C50.2557 211.053 50.7374 217.1 54.6734 220.734C58.6095 224.367 64.6782 224.367 68.6143 220.734C72.5503 217.1 73.032 211.053 69.7207 206.843C71.0938 205.096 51.37 199.341 51.37 200.494Z" fill="black"/>
<path d="M110.445 164.613V236.301C105.239 236.045 100.035 235.738 94.8346 235.378L92.4658 235.21V164.613C92.4658 163.871 92.7589 163.159 93.2806 162.635C93.8024 162.11 94.51 161.815 95.2478 161.815H107.663C108.401 161.815 109.109 162.11 109.63 162.635C110.152 163.159 110.445 163.871 110.445 164.613Z" fill="#3F3D56"/>
<path d="M133.562 237.698V116.68C133.562 115.128 134.807 113.87 136.344 113.87H148.759C149.497 113.87 150.205 114.166 150.726 114.693C151.248 115.22 151.541 115.935 151.541 116.68V238.014L133.562 237.698Z" fill="#3F3D56"/>
<path d="M174.658 238.014V141.517C174.658 139.96 175.903 138.699 177.44 138.699H189.855C191.391 138.699 192.637 139.96 192.637 141.517V237.806L174.658 238.014Z" fill="#3F3D56"/>
<path d="M234.589 70.4438V236.674C228.596 236.846 222.603 237.007 216.61 237.158V70.4438C216.61 68.8937 217.855 67.637 219.392 67.637H231.807C233.343 67.637 234.589 68.8937 234.589 70.4438Z" fill="#3F3D56"/>
<path d="M275.685 103.842V235.615C269.692 235.909 263.699 236.116 257.705 236.301V103.842C257.705 102.287 258.951 101.027 260.488 101.027H272.903C274.439 101.027 275.685 102.287 275.685 103.842Z" fill="#3F3D56"/>
<path d="M101.027 122.432L142.337 76.297L183.647 99.5233L224.957 28.2534L266.267 62.2975" stroke="#3F3D56" stroke-width="7" stroke-linecap="round"/>
<path d="M101.455 131.849C106.42 131.849 110.445 127.824 110.445 122.86C110.445 117.895 106.42 113.87 101.455 113.87C96.4906 113.87 92.4658 117.895 92.4658 122.86C92.4658 127.824 96.4906 131.849 101.455 131.849Z" fill="#FFAB2B"/>
<path d="M142.551 85.6164C147.516 85.6164 151.541 81.5916 151.541 76.6267C151.541 71.6618 147.516 67.637 142.551 67.637C137.586 67.637 133.562 71.6618 133.562 76.6267C133.562 81.5916 137.586 85.6164 142.551 85.6164Z" fill="#FFAB2B"/>
<path d="M183.647 108.733C188.612 108.733 192.637 104.708 192.637 99.7431C192.637 94.7783 188.612 90.7534 183.647 90.7534C178.682 90.7534 174.658 94.7783 174.658 99.7431C174.658 104.708 178.682 108.733 183.647 108.733Z" fill="#FFAB2B"/>
<path d="M225.599 37.6712C230.564 37.6712 234.589 33.6464 234.589 28.6815C234.589 23.7166 230.564 19.6918 225.599 19.6918C220.634 19.6918 216.61 23.7166 216.61 28.6815C216.61 33.6464 220.634 37.6712 225.599 37.6712Z" fill="#FFAB2B"/>
<path d="M305.223 113.014C310.187 113.014 314.212 108.989 314.212 104.024C314.212 99.0591 310.187 95.0342 305.223 95.0342C300.258 95.0342 296.233 99.0591 296.233 104.024C296.233 108.989 300.258 113.014 305.223 113.014Z" fill="#FFAB2B"/>
<path opacity="0.1" d="M74.4863 231.164C77.7962 231.164 80.4795 230.781 80.4795 230.308C80.4795 229.835 77.7962 229.452 74.4863 229.452C71.1764 229.452 68.4931 229.835 68.4931 230.308C68.4931 230.781 71.1764 231.164 74.4863 231.164Z" fill="#FFAB2B"/>
<path d="M70.2055 225.173C70.2055 225.173 73.6553 225.074 74.6951 224.393C75.735 223.711 80.0044 222.904 80.2635 223.991C80.5226 225.077 85.4464 229.421 81.5592 229.451C77.6721 229.481 72.5054 228.891 71.4688 228.311C70.4322 227.73 70.2055 225.173 70.2055 225.173Z" fill="#A8A8A8"/>
<path opacity="0.2" d="M81.6245 229.929C77.7361 229.959 72.5709 229.372 71.5308 228.791C70.7401 228.347 70.4258 226.76 70.3189 226.027H70.2055C70.2055 226.027 70.4226 228.586 71.4627 229.166C72.5029 229.747 77.6583 230.337 81.5564 230.307C82.6808 230.307 83.0697 229.932 83.047 229.387C82.8915 229.717 82.4637 229.923 81.6245 229.929Z" fill="black"/>
<path opacity="0.1" d="M338.185 240.582C344.332 240.582 349.315 239.816 349.315 238.87C349.315 237.924 344.332 237.158 338.185 237.158C332.038 237.158 327.055 237.924 327.055 238.87C327.055 239.816 332.038 240.582 338.185 240.582Z" fill="#FFAB2B"/>
<path d="M331.336 230.31C331.336 230.31 337.548 230.116 339.421 228.754C341.294 227.393 348.976 225.769 349.439 227.95C349.903 230.132 358.779 238.809 351.763 238.868C344.748 238.926 335.466 237.753 333.596 236.599C331.726 235.445 331.336 230.31 331.336 230.31Z" fill="#A8A8A8"/>
<path opacity="0.2" d="M351.892 238.098C344.876 238.156 335.593 236.981 333.723 235.826C332.301 234.94 331.732 231.759 331.542 230.308H331.336C331.336 230.308 331.729 235.433 333.596 236.595C335.463 237.757 344.752 238.935 351.765 238.867C353.79 238.867 354.489 238.114 354.451 237.023C354.168 237.673 353.397 238.085 351.892 238.098Z" fill="black"/>
<path fill-rule="evenodd" clip-rule="evenodd" d="M271.233 111.549C270.878 111.117 270.657 110.589 270.598 110.032C270.403 108.806 270.783 107.557 271.629 106.65C272.491 105.795 273.925 105.502 274.962 106.138C275.767 106.628 276.211 107.532 276.614 108.387C276.797 108.777 277.006 109.16 277.216 109.543C277.687 110.406 278.16 111.272 278.345 112.224C278.751 114.327 279.857 116.168 280.967 118.016C281.858 119.5 282.752 120.988 283.288 122.62C283.427 123.041 283.542 123.472 283.657 123.902C283.9 124.809 284.142 125.715 284.604 126.524C284.926 127.045 285.286 127.542 285.682 128.009C287.243 129.985 288.622 132.097 289.804 134.321C290.368 134.431 290.881 134.845 291.372 135.242C291.477 135.327 291.581 135.412 291.685 135.492C292.432 136.075 293.298 136.487 294.221 136.698C294.593 136.742 294.949 136.873 295.261 137.079C295.507 137.286 295.634 137.585 295.762 137.886C295.86 138.118 295.96 138.352 296.114 138.546C296.373 138.835 296.7 139.054 297.066 139.182C297.088 139.071 297.088 138.956 297.088 138.845C297.11 138.253 297.11 137.661 297.11 137.07C295.007 134.572 295.016 130.915 297.129 128.426C297.105 127.505 296.984 126.589 296.768 125.693C296.653 125.258 296.672 124.72 297.021 124.44C297.212 124.324 297.409 124.218 297.611 124.122C297.876 123.899 298.092 123.624 298.245 123.314C299.214 121.927 301.043 121.453 302.561 122.194C303.253 122.559 303.779 123.14 304.307 123.723C304.659 124.112 305.011 124.501 305.414 124.828C305.677 125.043 305.961 125.23 306.245 125.417C306.52 125.599 306.795 125.78 307.051 125.986C308.093 126.897 308.834 128.106 309.172 129.451C309.509 130.789 309.706 132.159 309.758 133.539C309.813 133.952 309.797 134.371 309.711 134.779C309.606 135.12 309.448 135.442 309.245 135.734C308.278 137.31 306.92 138.608 305.303 139.5C305.294 139.582 305.294 139.664 305.303 139.745C305.318 139.868 305.342 139.986 305.366 140.106L305.37 140.127C305.389 140.121 305.408 140.114 305.427 140.107C305.47 140.091 305.512 140.076 305.554 140.076C305.777 140.025 306.006 139.993 306.234 139.961C306.702 139.896 307.167 139.831 307.574 139.602C308.112 139.299 308.456 138.77 308.801 138.24C309.122 137.745 309.445 137.249 309.927 136.933C310.011 136.877 310.1 136.828 310.193 136.787C310.262 134.978 310.606 133.191 311.214 131.487C311.255 131.371 311.297 131.255 311.34 131.139C311.597 130.434 311.858 129.719 311.82 128.973C311.781 128.227 311.451 127.535 311.128 126.857C311.102 126.804 311.077 126.751 311.052 126.699C309.885 124.211 309.053 121.571 308.224 118.941L308.198 118.86C307.666 117.191 307.137 115.521 306.613 113.85C306.097 113.466 305.629 113.021 305.221 112.523C304.376 111.534 303.818 110.331 303.607 109.046C303.403 107.749 303.724 106.424 304.498 105.365C304.839 104.859 305.381 104.526 305.985 104.452C306.518 104.463 307.022 104.693 307.38 105.088C307.904 105.692 308.309 106.391 308.573 107.147C309.089 108.375 309.616 109.657 309.568 110.993C309.557 111.275 309.523 111.565 309.488 111.857C309.387 112.708 309.286 113.566 309.758 114.235C311.49 116.662 312.876 119.386 314.241 122.069C314.536 122.649 314.83 123.228 315.127 123.801C315.552 124.57 315.914 125.372 316.211 126.199C316.618 127.539 316.81 128.935 316.782 130.335C316.795 132.96 316.439 135.571 316.084 138.17C315.923 139.348 315.717 140.595 315.158 141.609C315.525 142.865 315.717 144.166 315.729 145.475C315.743 145.777 315.695 146.079 315.59 146.362C315.402 146.693 315.164 146.992 314.886 147.25C314.132 148.105 313.785 149.246 313.935 150.377C314.024 151.432 313.929 152.495 313.652 153.517C313.018 156.339 312.384 159.164 311.873 162.011C311.752 162.541 311.713 163.086 311.756 163.627C311.798 163.917 311.882 164.201 311.966 164.485C312.104 164.953 312.242 165.419 312.184 165.899C312.095 166.258 312.028 166.622 311.984 166.99C312.005 167.268 312.069 167.542 312.175 167.801C312.31 168.199 312.49 168.695 312.691 169.252C313.558 171.647 314.835 175.175 314.819 176.982C314.654 176.938 314.483 176.899 314.312 176.861C314.59 178.451 315.075 180.002 315.56 181.556C315.96 182.834 316.359 184.114 316.646 185.419C317.081 187.523 317.279 189.671 317.235 191.82C317.192 192.784 317.209 193.749 317.286 194.711C317.34 195.195 317.433 195.672 317.526 196.149C317.598 196.517 317.67 196.885 317.724 197.256C317.857 198.401 317.907 199.553 317.873 200.705C317.909 202.513 317.809 204.321 317.571 206.113C317.239 208.192 317.528 210.261 317.818 212.342C317.955 213.319 318.091 214.298 318.164 215.282C318.283 217.438 318.527 219.586 318.897 221.714C318.952 221.996 319.011 222.278 319.07 222.559C319.199 223.174 319.328 223.789 319.411 224.412C319.569 225.616 319.553 226.837 319.537 228.056C319.517 229.562 319.497 231.066 319.807 232.534C319.843 232.706 319.883 232.881 319.923 233.058C320.175 234.158 320.44 235.321 319.845 236.237C319.725 236.423 319.574 236.587 319.422 236.751C319.302 236.881 319.182 237.012 319.078 237.153C318.81 237.461 318.725 237.889 318.856 238.276C318.915 238.404 319.009 238.511 319.103 238.618C319.224 238.755 319.344 238.892 319.388 239.071C319.499 239.558 319.005 239.962 318.548 240.169C318.53 240.178 318.511 240.186 318.492 240.193C318.467 240.203 318.441 240.212 318.415 240.223C318.478 240.562 318.389 240.911 318.171 241.177C317.9 241.435 317.563 241.612 317.197 241.686L311.211 243.509C309.863 243.913 308.411 244.304 307.089 243.986C307.057 244.176 306.975 244.355 306.851 244.502C306.579 244.758 306.243 244.935 305.877 245.011L299.891 246.83C298.362 247.295 296.682 247.756 295.217 247.12C294.795 246.948 294.425 246.669 294.142 246.312C293.672 245.613 293.533 244.743 293.762 243.932C293.84 243.527 294.042 243.156 294.339 242.87C294.747 242.588 295.229 242.431 295.724 242.418C296.147 242.405 296.561 242.296 296.936 242.1C297.048 242.025 297.142 241.926 297.211 241.81C296.869 241.47 296.533 241.114 296.216 240.754C296.473 240.649 296.565 240.286 296.59 240.013C296.844 237.313 296.25 234.653 295.656 231.986C295.358 230.653 295.061 229.318 294.868 227.975C294.58 225.953 294.529 223.904 294.716 221.87C294.737 221.647 294.761 221.424 294.785 221.2C294.844 220.66 294.902 220.118 294.922 219.573C294.999 217.54 294.548 215.548 294.095 213.551C293.656 211.611 293.215 209.666 293.257 207.675C293.279 206.417 292.839 205.17 292.405 203.937C292.192 203.331 291.98 202.729 291.824 202.13C291.409 200.517 291.387 198.831 291.387 197.167L291.307 184.041C291.298 182.269 291.295 180.447 291.875 178.77C292.156 177.843 292.234 176.867 292.103 175.907C291.73 175.744 291.361 175.562 290.993 175.381C289.771 174.778 288.562 174.182 287.236 174.316C286.773 173.091 287.318 169.007 287.753 167.772C289.446 162.903 289.776 157.661 288.704 152.617C288.514 151.731 288.544 150.82 288.574 149.909C288.606 148.955 288.638 148.001 288.415 147.078C288.336 146.653 288.175 146.248 287.94 145.885C287.7 145.52 287.291 145.304 286.855 145.312C286.849 144.193 286.878 143.086 286.951 141.966C286.25 141.392 285.653 140.703 285.184 139.927C284.442 138.716 283.96 137.372 283.477 136.029C283.331 135.622 283.185 135.215 283.031 134.811C282.293 132.865 281.384 130.996 280.475 129.125C279.955 128.057 279.436 126.988 278.947 125.903C278.181 124.203 277.807 122.409 277.432 120.608C277.149 119.25 276.865 117.887 276.411 116.557C275.821 114.853 274.599 113.443 272.999 112.622C272.867 112.555 272.732 112.492 272.596 112.429C272.097 112.195 271.594 111.96 271.233 111.549ZM307.035 239.093C307.457 239.08 307.871 238.972 308.246 238.775C308.461 238.596 308.617 238.355 308.693 238.085C308.563 237.942 308.436 237.796 308.319 237.643C308.718 237.579 309.216 237.287 309.216 236.879C309.186 236.471 309.099 236.07 308.956 235.686C308.769 234.995 308.738 234.27 308.864 233.564C308.914 233.292 308.985 233.031 309.056 232.77C309.116 232.551 309.176 232.332 309.223 232.107C309.318 231.563 309.381 231.014 309.413 230.463C309.584 228.48 309.97 226.521 310.564 224.622C310.967 223.336 310.705 222.033 310.44 220.714C310.326 220.144 310.211 219.57 310.149 218.994C310.122 218.742 310.106 218.486 310.091 218.231C310.05 217.569 310.009 216.907 309.781 216.29C309.686 216.032 309.561 215.792 309.437 215.552C309.313 215.313 309.189 215.075 309.096 214.82C308.661 213.643 308.921 212.329 309.185 211.098C307.467 207.967 306.799 204.285 306.155 200.735C306.096 200.412 306.038 200.09 305.979 199.77L304.79 193.299C304.622 192.341 304.428 191.342 303.839 190.569C303.222 193.426 302.98 196.351 303.119 199.27C303.191 200.111 303.18 200.957 303.087 201.796C303 202.352 302.827 202.888 302.654 203.424C302.539 203.783 302.423 204.143 302.332 204.51C301.994 205.855 302.013 207.246 302.031 208.639C302.04 209.324 302.049 210.01 302.015 210.691C301.995 211.077 301.961 211.461 301.928 211.847C301.889 212.294 301.85 212.742 301.831 213.191C301.676 216.879 302.906 220.464 304.121 223.944C304.685 225.544 304.92 227.311 305.148 229.032C305.225 229.611 305.301 230.185 305.389 230.746L305.404 230.845C305.732 232.953 306.061 235.064 306.226 237.191C306.235 237.309 306.244 237.428 306.253 237.547C306.294 238.092 306.335 238.647 306.401 239.195C306.61 239.15 306.822 239.116 307.035 239.093Z" fill="url(#paint0_linear)"/>
<path d="M295.771 242.303C295.267 242.316 294.777 242.478 294.361 242.768C294.057 243.058 293.852 243.439 293.773 243.854C293.542 244.682 293.683 245.572 294.161 246.283C294.449 246.65 294.826 246.936 295.255 247.112C296.746 247.766 298.457 247.288 300.013 246.814L306.107 244.954C306.478 244.877 306.821 244.697 307.098 244.434C307.442 243.964 307.452 243.324 307.124 242.843C306.796 242.381 306.349 242.02 305.832 241.799C303.938 240.862 301.801 240.65 299.719 240.61C298.944 240.61 298.179 240.421 297.653 241.026C297.376 241.353 297.427 241.704 297.008 241.982C296.624 242.181 296.202 242.29 295.771 242.303Z" fill="#3F3D56"/>
<path d="M306.901 238.877C306.397 238.892 305.907 239.053 305.491 239.342C305.188 239.633 304.983 240.013 304.903 240.429C304.672 241.258 304.814 242.148 305.291 242.861C305.58 243.226 305.957 243.51 306.385 243.686C307.879 244.341 309.587 243.866 311.143 243.391L317.237 241.529C317.609 241.452 317.952 241.271 318.228 241.008C318.572 240.539 318.582 239.901 318.254 239.421C317.926 238.959 317.48 238.598 316.963 238.376C315.065 237.44 312.928 237.224 310.846 237.185C310.071 237.185 309.309 236.998 308.78 237.604C308.502 237.931 308.554 238.278 308.134 238.556C307.753 238.758 307.331 238.867 306.901 238.877Z" fill="#3F3D56"/>
<path d="M301.719 174.088C305.27 173.732 308.843 173.632 312.409 173.789C312.644 173.786 312.878 173.823 313.101 173.897C313.886 174.215 314.008 175.24 314.081 176.077C314.4 179.475 315.888 182.642 316.635 185.97C317.073 188.063 317.272 190.198 317.228 192.335C317.185 193.29 317.202 194.247 317.279 195.199C317.375 196.049 317.599 196.883 317.72 197.729C317.855 198.866 317.905 200.012 317.87 201.157C317.906 202.951 317.805 204.746 317.567 206.525C317.075 209.558 317.934 212.572 318.164 215.639C318.278 217.785 318.52 219.922 318.888 222.039C319.064 222.933 319.284 223.818 319.405 224.719C319.763 227.395 319.239 230.151 319.804 232.792C320.066 234.027 320.538 235.414 319.843 236.471C319.626 236.789 319.306 237.06 319.07 237.381C318.8 237.687 318.715 238.113 318.847 238.498C318.984 238.788 319.303 238.979 319.383 239.287C319.507 239.774 318.997 240.172 318.537 240.379C315.074 241.938 310.608 240.84 308.272 237.852C308.674 237.788 309.166 237.499 309.175 237.092C309.144 236.687 309.056 236.288 308.913 235.908C308.725 235.221 308.694 234.501 308.821 233.801C308.913 233.311 309.079 232.846 309.181 232.353C309.277 231.812 309.341 231.266 309.373 230.717C309.546 228.746 309.934 226.8 310.532 224.913C311.113 223.083 310.321 221.231 310.114 219.321C310.018 218.418 310.059 217.485 309.743 216.632C309.552 216.129 309.242 215.678 309.054 215.175C308.616 214 308.878 212.696 309.143 211.474C307.257 208.078 306.628 204.03 305.916 200.215L304.719 193.786C304.54 192.832 304.346 191.842 303.762 191.072C303.141 193.91 302.897 196.817 303.037 199.718C303.109 200.554 303.099 201.395 303.005 202.229C302.858 203.152 302.472 204.021 302.245 204.924C301.751 206.92 302.041 209.014 301.926 211.066C301.881 211.897 301.776 212.721 301.741 213.552C301.585 217.218 302.823 220.782 304.046 224.241C304.796 226.364 304.962 228.776 305.322 230.997C305.642 233.126 305.996 235.255 306.165 237.403C306.321 239.376 306.392 241.512 307.624 243.062C306.497 243.79 305.335 244.532 304.017 244.783C302.481 245.023 300.909 244.719 299.574 243.924C298.246 243.133 297.06 242.127 296.063 240.949C296.321 240.859 296.414 240.484 296.439 240.213C296.822 236.185 295.287 232.258 294.706 228.248C294.416 226.239 294.364 224.203 294.553 222.182C294.626 221.422 294.732 220.661 294.76 219.897C294.913 215.916 292.989 212.082 293.059 208.097C293.091 206.229 292.101 204.39 291.616 202.585C291.198 200.994 291.185 199.308 291.176 197.653L291.096 184.605C291.096 182.842 291.096 181.035 291.667 179.37C292.369 177.365 291.565 175.065 291.444 172.945C294.761 173.993 298.252 174.381 301.719 174.088Z" fill="#696791"/>
<path d="M290.876 135.716C289.52 133.002 287.863 130.441 285.937 128.08C285.534 127.619 285.167 127.129 284.84 126.614C284.146 125.436 283.94 124.052 283.501 122.763C282.275 119.149 279.217 116.246 278.472 112.508C278.201 111.15 277.317 109.981 276.71 108.717C276.3 107.873 275.849 106.982 275.029 106.505C273.975 105.874 272.516 106.164 271.639 107.011C270.783 107.904 270.4 109.135 270.6 110.344C270.661 110.894 270.885 111.415 271.245 111.841C271.713 112.356 272.413 112.59 273.042 112.9C274.668 113.707 275.912 115.098 276.513 116.783C277.588 119.831 277.726 123.06 279.094 126.005C280.462 128.949 282.069 131.773 283.249 134.784C283.92 136.493 284.456 138.259 285.44 139.839C286.424 141.419 287.959 142.743 289.814 142.979C289.802 141.834 289.979 140.695 290.34 139.605C290.743 138.361 291.459 136.895 290.876 135.716Z" fill="#A0616A"/>
<path d="M309.95 138.522C309.865 136.29 310.227 134.063 311.016 131.962C311.318 131.157 311.672 130.339 311.643 129.484C311.6 128.688 311.206 127.959 310.849 127.239C309.615 124.761 308.749 122.134 307.896 119.514L306.255 114.574C305.72 114.196 305.236 113.756 304.815 113.264C303.94 112.291 303.362 111.104 303.144 109.835C302.933 108.557 303.265 107.251 304.066 106.211C304.42 105.711 304.981 105.382 305.605 105.308C306.156 105.32 306.678 105.548 307.049 105.94C307.59 106.534 308.009 107.222 308.283 107.966C308.818 109.179 309.362 110.441 309.313 111.755C309.267 112.847 308.844 114.065 309.51 114.953C311.689 117.863 313.339 121.206 315.065 124.385C315.505 125.143 315.881 125.934 316.187 126.75C316.609 128.073 316.808 129.452 316.778 130.835C316.778 133.42 316.423 135.996 316.056 138.56C315.823 140.167 315.518 141.916 314.255 142.979C312.942 141.363 311.623 139.785 309.95 138.522Z" fill="#A0616A"/>
<path d="M301.798 139.555C305.344 139.555 308.219 136.68 308.219 133.134C308.219 129.587 305.344 126.712 301.798 126.712C298.252 126.712 295.377 129.587 295.377 133.134C295.377 136.68 298.252 139.555 301.798 139.555Z" fill="#A0616A"/>
<path d="M305.156 140.467C305.318 141.694 305.968 142.793 306.602 143.852C306.984 144.506 307.472 145.203 308.219 145.275C306.275 146.306 304.232 147.137 302.123 147.753C301.406 147.997 300.654 148.12 299.898 148.116C299.257 148.068 298.629 147.905 298.044 147.636C295.453 146.495 293.523 144.214 292.808 141.448C293.644 141.471 294.479 141.406 295.302 141.256C295.771 141.219 296.209 141.001 296.524 140.647C296.712 140.316 296.799 139.936 296.777 139.555C296.809 138.424 296.812 137.289 296.777 136.157C298.426 136.051 300.08 136.257 301.654 136.766C302.301 136.978 302.947 137.233 303.594 137.4C304.002 137.505 305.124 137.4 305.425 137.639C305.92 137.976 305.043 139.634 305.156 140.467Z" fill="#A0616A"/>
<path d="M302.498 143.961C302.647 142.162 303.926 140.66 305.673 140.235C306.357 140.081 307.098 140.1 307.708 139.76C308.755 139.173 309.071 137.741 310.077 137.083C311.084 136.425 312.511 136.791 313.386 137.622C314.262 138.454 314.706 139.638 315.063 140.797C315.597 142.363 315.887 144.004 315.922 145.659C315.936 145.962 315.888 146.265 315.782 146.548C315.593 146.88 315.353 147.18 315.073 147.437C314.314 148.293 313.965 149.438 314.115 150.573C314.205 151.63 314.109 152.695 313.83 153.719C313.192 156.55 312.553 159.377 312.039 162.234C311.918 162.76 311.878 163.301 311.92 163.839C312.019 164.612 312.444 165.344 312.352 166.117C312.261 166.478 312.194 166.843 312.15 167.212C312.171 167.491 312.236 167.765 312.342 168.024C313.067 170.139 315.025 174.986 315.006 177.226C311.604 176.35 306.59 176.154 303.076 176.138C302.11 176.128 301.144 176.171 300.183 176.266C297.873 176.517 295.51 177.194 293.271 176.568C291.191 175.987 289.352 174.321 287.202 174.53C286.736 173.304 287.285 169.212 287.723 167.973C289.429 163.094 289.76 157.837 288.681 152.781C288.288 150.965 288.828 149.036 288.39 147.232C288.31 146.805 288.148 146.398 287.911 146.035C287.669 145.668 287.257 145.451 286.819 145.46C286.779 142.559 287.047 139.661 287.617 136.817C287.828 135.806 288.256 134.612 289.288 134.438C290.201 134.281 290.968 135.058 291.703 135.626C292.456 136.212 293.328 136.624 294.258 136.833C294.632 136.878 294.991 137.009 295.305 137.218C295.743 137.584 295.807 138.242 296.165 138.688C296.803 139.487 298.231 139.42 298.685 140.341C298.784 140.615 298.864 140.896 298.924 141.182C299.139 141.729 299.504 142.204 299.978 142.549C300.69 143.221 301.555 143.706 302.498 143.961Z" fill="#F86D70"/>
<path d="M296.294 126.173C296.182 125.745 296.201 125.237 296.543 124.95C296.715 124.816 296.939 124.766 297.123 124.638C297.381 124.42 297.593 124.152 297.745 123.849C298.705 122.505 300.493 122.05 301.977 122.774C303.101 123.363 303.779 124.542 304.779 125.337C305.286 125.749 305.875 126.054 306.386 126.466C307.408 127.351 308.135 128.528 308.469 129.84C308.799 131.142 308.993 132.476 309.045 133.819C309.098 134.222 309.082 134.631 308.998 135.029C308.894 135.362 308.74 135.678 308.54 135.964C307.513 137.524 306.158 138.939 304.461 139.744C302.764 140.548 300.7 140.679 299.025 139.837C298.856 139.769 298.711 139.653 298.608 139.504C298.512 139.276 298.49 139.025 298.542 138.783C298.633 137.83 298.445 136.871 298.001 136.024C297.689 135.4 297.222 134.864 296.973 134.218C296.741 133.496 296.642 132.737 296.68 131.979C296.652 130.018 296.786 128.062 296.294 126.173Z" fill="#2D293D"/>
<defs>
<linearGradient id="paint0_linear" x1="320.197" y1="104.478" x2="270.557" y2="104.478" gradientUnits="userSpaceOnUse">
<stop stop-color="#808080" stop-opacity="0.25"/>
<stop offset="0.54" stop-color="#808080" stop-opacity="0.12"/>
<stop offset="1" stop-color="#808080" stop-opacity="0.1"/>
</linearGradient>
</defs>
</svg>
