<svg width="250" height="169" viewBox="0 0 250 169" fill="none" xmlns="http://www.w3.org/2000/svg">
<path opacity="0.1" d="M99.7012 16.3241C80.5555 -1.92399 51.5988 -5.18473 28.8743 8.34847C51.575 16.4747 76.6228 16.7734 99.7012 16.3241Z" fill="#FFAB2B"/>
<path opacity="0.1" fill-rule="evenodd" clip-rule="evenodd" d="M231.272 148.298L206.482 105.361C206.341 105.115 206.08 104.964 205.797 104.964C205.514 104.964 205.253 105.115 205.112 105.361L180.323 148.298C180.176 148.543 180.172 148.848 180.314 149.096C180.456 149.344 180.721 149.496 181.006 149.493H188.401C188.837 149.495 189.191 149.848 189.192 150.284V159.448C189.192 159.884 189.545 160.238 189.981 160.239H199.63C200.066 160.239 200.421 159.885 200.421 159.448V155.019C200.421 154.584 200.774 154.23 201.209 154.23H210.382C210.818 154.23 211.172 154.583 211.174 155.019V159.448C211.174 159.885 211.528 160.239 211.965 160.239H221.611C222.048 160.239 222.402 159.885 222.402 159.448V150.275C222.402 149.838 222.756 149.484 223.193 149.484H230.588C230.87 149.483 231.13 149.332 231.271 149.088C231.412 148.844 231.412 148.543 231.272 148.298ZM196.702 153.05C196.555 153.201 196.353 153.287 196.142 153.289H192.67C192.233 153.289 191.879 152.935 191.879 152.498C191.879 152.061 192.233 151.707 192.67 151.707H196.15C196.47 151.707 196.758 151.899 196.88 152.195C197.003 152.49 196.935 152.831 196.709 153.057L196.702 153.05ZM218.915 153.289C219.126 153.287 219.327 153.201 219.474 153.05L219.489 153.057C219.715 152.831 219.782 152.49 219.66 152.195C219.538 151.899 219.249 151.707 218.929 151.707H215.445C215.008 151.707 214.653 152.061 214.653 152.498C214.653 152.935 215.008 153.289 215.445 153.289H218.915Z" fill="#FFAB2B"/>
<path opacity="0.1" fill-rule="evenodd" clip-rule="evenodd" d="M78.0473 148.676L53.2576 105.739C53.1162 105.494 52.8553 105.344 52.5729 105.344C52.2905 105.344 52.0296 105.494 51.8881 105.739L30.4756 142.825C33.1507 146.196 36.1521 149.295 39.4359 152.077H42.9254C43.3623 152.077 43.7165 152.431 43.7165 152.868C43.7165 153.305 43.3623 153.659 42.9254 153.659H41.4531C43.2564 155.015 45.1759 156.209 47.1893 157.228V155.399C47.1893 154.962 47.5435 154.608 47.9804 154.608H57.1534C57.5894 154.609 57.9422 154.963 57.9422 155.399V159.826C57.9417 159.94 57.9671 160.054 58.0162 160.158C58.1456 160.437 58.4253 160.616 58.7333 160.617H68.3819C68.6303 160.618 68.8641 160.499 69.0105 160.299C69.1167 160.162 69.1732 159.994 69.1706 159.821V150.655C69.1706 150.218 69.5248 149.864 69.9618 149.864H77.3566C77.6406 149.866 77.904 149.716 78.0468 149.47C78.1896 149.225 78.1898 148.922 78.0473 148.676ZM61.6635 152.309C61.8104 152.158 62.0119 152.071 62.2227 152.07H65.7027C66.1396 152.07 66.4938 152.424 66.4938 152.861C66.4938 153.298 66.1396 153.652 65.7027 153.652H62.2204C61.9005 153.652 61.6121 153.459 61.4897 153.164C61.3673 152.868 61.4349 152.528 61.6611 152.302L61.6635 152.309ZM45.3011 135.629C45.3011 136.066 45.6553 136.42 46.0923 136.42H59.0583C59.4943 136.418 59.847 136.065 59.847 135.629V129.62C59.847 129.184 59.4943 128.83 59.0583 128.829H46.0923C45.6553 128.829 45.3011 129.183 45.3011 129.62V135.629Z" fill="#FFAB2B"/>
<path opacity="0.1" fill-rule="evenodd" clip-rule="evenodd" d="M176.035 71.544H145.359V64.9092C145.359 64.0327 144.648 63.3222 143.772 63.3222H134.763V56.2548C134.763 55.703 134.316 55.2557 133.764 55.2557H122.161C121.609 55.2557 121.162 55.703 121.162 56.2548V63.3198H110.571C109.695 63.3198 108.984 64.0303 108.984 64.9068V71.5416H79.7323C79.5551 71.5429 79.412 71.687 79.412 71.8642V159.945C79.412 160.122 79.5551 160.266 79.7323 160.268H99.173C99.3512 160.268 99.4957 160.123 99.4957 159.945V148.095C99.497 147.917 99.6407 147.774 99.8184 147.772H108.031C108.208 147.774 108.352 147.917 108.353 148.095V159.945C108.353 160.122 108.496 160.266 108.674 160.268H147.094C147.271 160.266 147.415 160.123 147.416 159.945V148.095C147.416 147.918 147.559 147.774 147.737 147.772H155.949C156.127 147.772 156.272 147.917 156.272 148.095V159.945C156.273 160.123 156.417 160.266 156.594 160.268H176.035C176.213 160.266 176.356 160.123 176.358 159.945V71.8666C176.356 71.689 176.213 71.5453 176.035 71.544ZM96.0158 143.657C96.0158 143.834 95.8724 143.977 95.6955 143.977H83.6879C83.6025 143.978 83.5204 143.944 83.4599 143.884C83.3993 143.824 83.3652 143.742 83.3652 143.657V139.563C83.3652 139.384 83.5097 139.24 83.6879 139.24H95.6955C95.8728 139.241 96.0158 139.385 96.0158 139.563V143.657ZM95.9228 133.287C95.983 133.227 96.0164 133.145 96.0158 133.059V128.96C96.0164 128.875 95.983 128.793 95.9228 128.732C95.8627 128.672 95.7809 128.638 95.6955 128.638H83.6879C83.6021 128.637 83.5196 128.671 83.459 128.731C83.3983 128.792 83.3646 128.875 83.3652 128.96V133.059C83.3646 133.145 83.3983 133.227 83.459 133.288C83.5196 133.349 83.6021 133.383 83.6879 133.382H95.6955C95.7809 133.382 95.8627 133.348 95.9228 133.287ZM96.0158 122.464C96.0158 122.641 95.8728 122.785 95.6955 122.787H83.6879C83.6023 122.787 83.5202 122.753 83.4597 122.692C83.3992 122.632 83.3652 122.55 83.3652 122.464V118.363C83.3652 118.185 83.5097 118.04 83.6879 118.04H95.6955C95.8728 118.041 96.0158 118.186 96.0158 118.363V122.464ZM95.9228 112.095C95.983 112.034 96.0164 111.952 96.0158 111.867V107.775C96.0164 107.69 95.983 107.607 95.9228 107.547C95.8627 107.486 95.7809 107.452 95.6955 107.452H83.6879C83.6021 107.452 83.5196 107.485 83.459 107.546C83.3983 107.607 83.3646 107.689 83.3652 107.775V111.867C83.3646 111.952 83.3983 112.035 83.459 112.095C83.5196 112.156 83.6021 112.19 83.6879 112.189H95.6955C95.7809 112.189 95.8627 112.155 95.9228 112.095ZM96.0158 101.272C96.0158 101.449 95.8728 101.593 95.6955 101.594H83.6879C83.5097 101.594 83.3652 101.45 83.3652 101.272V97.1702C83.3652 97.0848 83.3993 97.003 83.4599 96.9429C83.5204 96.8827 83.6025 96.8493 83.6879 96.8499H95.6955C95.8724 96.8499 96.0158 96.9933 96.0158 97.1702V101.272ZM95.6955 90.9967C95.8724 90.9967 96.0158 90.8533 96.0158 90.6764V86.5751C96.0158 86.3978 95.8728 86.2537 95.6955 86.2524H83.6879C83.5097 86.2524 83.3652 86.3969 83.3652 86.5751V90.6764C83.3652 90.7617 83.3993 90.8436 83.4599 90.9037C83.5204 90.9638 83.6025 90.9973 83.6879 90.9967H95.6955ZM96.0158 80.0789C96.0164 80.1642 95.983 80.2463 95.9228 80.3069C95.8627 80.3675 95.7809 80.4015 95.6955 80.4015H83.6879C83.6021 80.4022 83.5196 80.3684 83.459 80.3077C83.3983 80.2471 83.3646 80.1646 83.3652 80.0789V75.9871C83.3646 75.9013 83.3983 75.8189 83.459 75.7582C83.5196 75.6976 83.6021 75.6638 83.6879 75.6644H95.6955C95.7809 75.6644 95.8627 75.6985 95.9228 75.7591C95.983 75.8197 96.0164 75.9017 96.0158 75.9871V80.0789ZM124.389 143.882C124.45 143.822 124.484 143.74 124.484 143.654V139.563C124.484 139.384 124.339 139.24 124.161 139.24H112.153C111.976 139.241 111.832 139.385 111.831 139.563V143.654C111.832 143.832 111.976 143.975 112.153 143.975H124.161C124.246 143.975 124.329 143.942 124.389 143.882ZM124.484 133.057C124.484 133.143 124.451 133.225 124.39 133.286C124.329 133.346 124.247 133.38 124.161 133.38H112.153C112.068 133.38 111.986 133.346 111.925 133.285C111.865 133.225 111.831 133.142 111.831 133.057V128.96C111.831 128.875 111.865 128.793 111.925 128.732C111.986 128.672 112.068 128.638 112.153 128.638H124.161C124.247 128.637 124.329 128.671 124.39 128.731C124.451 128.792 124.484 128.875 124.484 128.96V133.057ZM124.161 122.784C124.339 122.784 124.484 122.64 124.484 122.462V118.363C124.484 118.185 124.339 118.04 124.161 118.04H112.153C111.976 118.041 111.832 118.185 111.831 118.363V122.462C111.832 122.639 111.976 122.783 112.153 122.784H124.161ZM124.484 111.864C124.484 111.95 124.451 112.032 124.39 112.093C124.329 112.154 124.247 112.188 124.161 112.187H112.153C112.068 112.187 111.986 112.153 111.925 112.092C111.865 112.032 111.831 111.95 111.831 111.864V107.775C111.831 107.689 111.865 107.607 111.925 107.547C111.986 107.486 112.068 107.452 112.153 107.452H124.161C124.247 107.452 124.329 107.485 124.39 107.546C124.451 107.607 124.484 107.689 124.484 107.775V111.864ZM124.161 101.592C124.339 101.592 124.484 101.447 124.484 101.269V97.1702C124.484 97.0848 124.45 97.003 124.389 96.9429C124.329 96.8827 124.246 96.8493 124.161 96.8499H112.153C111.976 96.8499 111.832 96.9929 111.831 97.1702V101.269C111.832 101.447 111.976 101.59 112.153 101.592H124.161ZM124.484 90.674C124.484 90.7594 124.45 90.8412 124.389 90.9013C124.329 90.9614 124.246 90.9949 124.161 90.9943H112.153C111.976 90.9943 111.832 90.8513 111.831 90.674V86.5751C111.832 86.3974 111.976 86.2537 112.153 86.2524H124.161C124.339 86.2524 124.484 86.3969 124.484 86.5751V90.674ZM124.39 80.3053C124.451 80.2447 124.484 80.1623 124.484 80.0765V75.9871C124.484 75.9013 124.451 75.8189 124.39 75.7582C124.329 75.6976 124.247 75.6638 124.161 75.6644H112.153C112.068 75.6644 111.986 75.6984 111.925 75.7589C111.865 75.8195 111.831 75.9015 111.831 75.9871V80.0765C111.831 80.1621 111.865 80.2441 111.925 80.3046C111.986 80.3651 112.068 80.3991 112.153 80.3991H124.161C124.247 80.3998 124.329 80.366 124.39 80.3053ZM143.936 143.652C143.936 143.737 143.902 143.819 143.842 143.879C143.781 143.939 143.699 143.973 143.614 143.972H131.606C131.429 143.972 131.285 143.829 131.283 143.652V139.563C131.285 139.385 131.428 139.241 131.606 139.24H143.614C143.792 139.24 143.936 139.384 143.936 139.563V143.652ZM143.843 133.283C143.903 133.223 143.937 133.14 143.936 133.054V128.96C143.937 128.875 143.903 128.792 143.843 128.731C143.782 128.671 143.7 128.637 143.614 128.638H131.606C131.521 128.638 131.438 128.672 131.378 128.732C131.317 128.793 131.283 128.875 131.283 128.96V133.054C131.283 133.14 131.317 133.222 131.378 133.283C131.438 133.343 131.521 133.377 131.606 133.377H143.614C143.7 133.378 143.782 133.344 143.843 133.283ZM143.936 122.459C143.936 122.638 143.792 122.782 143.614 122.782H131.606C131.428 122.781 131.285 122.637 131.283 122.459V118.363C131.285 118.185 131.428 118.041 131.606 118.04H143.614C143.792 118.04 143.936 118.185 143.936 118.363V122.459ZM143.843 112.091C143.903 112.03 143.937 111.948 143.936 111.862V107.775C143.937 107.689 143.903 107.607 143.843 107.546C143.782 107.485 143.7 107.452 143.614 107.452H131.606C131.521 107.452 131.438 107.486 131.378 107.547C131.317 107.607 131.283 107.689 131.283 107.775V111.862C131.283 111.947 131.317 112.029 131.378 112.09C131.438 112.151 131.521 112.185 131.606 112.185H143.614C143.7 112.185 143.782 112.151 143.843 112.091ZM143.936 101.267C143.936 101.445 143.792 101.589 143.614 101.589H131.606C131.428 101.588 131.285 101.444 131.283 101.267V97.1702C131.285 96.9929 131.429 96.8499 131.606 96.8499H143.614C143.699 96.8493 143.781 96.8827 143.842 96.9429C143.902 97.003 143.936 97.0848 143.936 97.1702V101.267ZM143.842 90.8989C143.902 90.8388 143.936 90.757 143.936 90.6716V86.5751C143.936 86.3969 143.792 86.2524 143.614 86.2524H131.606C131.428 86.2537 131.285 86.3974 131.283 86.5751V90.6716C131.285 90.8489 131.429 90.9919 131.606 90.9919H143.614C143.699 90.9925 143.781 90.9591 143.842 90.8989ZM143.936 80.0741C143.937 80.1599 143.903 80.2423 143.843 80.303C143.782 80.3636 143.7 80.3974 143.614 80.3968H131.606C131.521 80.3968 131.438 80.3628 131.378 80.3022C131.317 80.2417 131.283 80.1597 131.283 80.0741V75.9871C131.283 75.9015 131.317 75.8195 131.378 75.7589C131.438 75.6984 131.521 75.6644 131.606 75.6644H143.614C143.7 75.6638 143.782 75.6976 143.843 75.7582C143.903 75.8189 143.937 75.9013 143.936 75.9871V80.0741ZM172.082 143.97C172.259 143.97 172.403 143.827 172.404 143.65L172.407 139.563C172.405 139.385 172.262 139.241 172.084 139.24H160.074C159.896 139.24 159.751 139.384 159.751 139.563V143.65C159.751 143.735 159.785 143.817 159.846 143.877C159.907 143.937 159.989 143.971 160.074 143.97H172.082ZM172.404 133.052C172.404 133.23 172.26 133.375 172.082 133.375H160.074C159.988 133.375 159.906 133.342 159.845 133.281C159.785 133.22 159.751 133.138 159.751 133.052V128.96C159.751 128.875 159.785 128.792 159.845 128.731C159.906 128.671 159.988 128.637 160.074 128.638H172.084C172.262 128.638 172.407 128.782 172.407 128.96L172.404 133.052ZM172.082 122.78C172.259 122.778 172.403 122.635 172.404 122.457L172.407 118.363C172.405 118.185 172.262 118.041 172.084 118.04H160.074C159.896 118.04 159.751 118.185 159.751 118.363V122.457C159.751 122.635 159.896 122.78 160.074 122.78H172.082ZM172.404 111.859C172.404 112.038 172.26 112.182 172.082 112.182H160.074C159.988 112.183 159.906 112.149 159.845 112.088C159.785 112.028 159.751 111.945 159.751 111.859V107.775C159.751 107.689 159.785 107.607 159.845 107.546C159.906 107.485 159.988 107.452 160.074 107.452H172.084C172.262 107.452 172.407 107.597 172.407 107.775L172.404 111.859ZM172.082 101.587C172.259 101.586 172.403 101.442 172.404 101.264L172.407 97.1702C172.405 96.9929 172.261 96.8499 172.084 96.8499H160.074C159.989 96.8493 159.907 96.8827 159.846 96.9429C159.785 97.003 159.751 97.0848 159.751 97.1702V101.264C159.751 101.443 159.896 101.587 160.074 101.587H172.082ZM172.404 90.6692C172.406 90.7552 172.373 90.8381 172.312 90.8996C172.252 90.9611 172.17 90.996 172.084 90.9967H160.074C159.989 90.9973 159.907 90.9638 159.846 90.9037C159.785 90.8436 159.751 90.7617 159.751 90.6764V86.5751C159.751 86.3969 159.896 86.2524 160.074 86.2524H172.084C172.262 86.2537 172.405 86.3974 172.407 86.5751L172.404 90.6692ZM172.082 80.3944C172.26 80.3944 172.404 80.2499 172.404 80.0717L172.407 75.9871C172.407 75.8089 172.262 75.6644 172.084 75.6644H160.074C159.988 75.6638 159.906 75.6976 159.845 75.7582C159.785 75.8189 159.751 75.9013 159.751 75.9871V80.0717C159.751 80.1575 159.785 80.2399 159.845 80.3006C159.906 80.3612 159.988 80.395 160.074 80.3944H172.082Z" fill="#FFAB2B"/>
<path opacity="0.1" d="M88.6711 47.6721C87.3216 47.4151 85.926 47.5666 84.663 48.1071C83.1234 48.7933 81.3641 48.7889 79.8279 48.0951C78.0162 47.3008 75.947 47.3418 74.1683 48.2075C73.6656 48.4723 73.1064 48.6117 72.5382 48.6138C70.2438 48.6138 68.3341 46.3026 67.9374 43.2529C68.3959 42.9188 68.7854 42.4992 69.0846 42.0172C70.4302 39.8494 72.5143 38.456 74.8542 38.456C77.1941 38.456 79.2519 39.8327 80.5903 41.9766C81.4066 43.294 82.8528 44.0883 84.4025 44.0703H84.4622C86.3074 44.0703 87.8896 45.5354 88.6711 47.6721Z" fill="#FFAB2B"/>
<path opacity="0.1" d="M95.6501 38.0999L91.9407 40.4517L94.1922 36.3576C93.5541 35.8482 92.7643 35.5664 91.9479 35.5569H91.8882C91.6304 35.5607 91.3729 35.5415 91.1186 35.4995L89.8662 36.2978L90.4063 35.3179C89.5151 35.0064 88.7453 34.4208 88.2075 33.6448L85.956 35.0789L87.3733 32.488C86.0564 30.9082 84.283 29.9402 82.3327 29.9402C79.9928 29.9402 77.9087 31.3313 76.5631 33.499C75.7517 34.8233 74.2912 35.6093 72.739 35.5569H72.6123C70.0287 35.5569 67.935 38.4847 67.935 42.0985C67.935 45.7122 70.0287 48.6401 72.6123 48.6401C73.1808 48.6385 73.7404 48.4982 74.2424 48.2314C76.0215 47.3665 78.0906 47.3263 79.902 48.1214C81.4337 48.805 83.1839 48.805 84.7156 48.1214C86.5129 47.3399 88.5614 47.3792 90.3274 48.229C90.8247 48.4892 91.3771 48.6261 91.9383 48.6281C94.522 48.6281 96.6157 45.6979 96.6157 42.0865C96.6321 40.6978 96.3001 39.3272 95.6501 38.0999Z" fill="#FFAB2B"/>
<path opacity="0.1" d="M198.853 91.2835C197.908 91.1045 196.931 91.2102 196.047 91.587C194.975 92.0665 193.749 92.0665 192.677 91.587C191.408 91.0309 189.96 91.0598 188.714 91.6659C188.363 91.8515 187.972 91.9491 187.574 91.9503C185.968 91.9503 184.632 90.3322 184.355 88.1979C184.675 87.9632 184.947 87.6695 185.158 87.3327C186.099 85.815 187.548 84.8399 189.195 84.8399C190.841 84.8399 192.275 85.7959 193.217 87.304C193.788 88.2263 194.8 88.7822 195.884 88.7691H195.927C197.194 88.7643 198.301 89.7897 198.853 91.2835Z" fill="#FFAB2B"/>
<path opacity="0.1" d="M203.733 84.5913L201.138 86.238L202.713 83.37C202.266 83.0141 201.713 82.8173 201.142 82.8107H201.102C200.922 82.8129 200.742 82.7993 200.564 82.7701L199.682 83.327L200.06 82.6434C199.437 82.4246 198.899 82.0158 198.521 81.4747L196.941 82.4689L197.935 80.6597C197.015 79.5531 195.784 78.8743 194.407 78.8743C192.77 78.8743 191.3 79.8494 190.368 81.3671C189.8 82.2899 188.781 82.8373 187.698 82.8011H187.619C185.813 82.8011 184.345 84.8494 184.345 87.3781C184.345 89.9068 185.813 91.9575 187.619 91.9575C188.017 91.9563 188.408 91.8587 188.76 91.673C190.005 91.0664 191.454 91.0384 192.722 91.5966C193.795 92.073 195.019 92.073 196.092 91.5966C197.35 91.0504 198.783 91.0783 200.019 91.673C200.368 91.8537 200.754 91.9487 201.147 91.9503C202.956 91.9503 204.422 89.902 204.422 87.3709C204.427 86.4015 204.191 85.4461 203.733 84.5913Z" fill="#FFAB2B"/>
<path opacity="0.1" d="M57.0316 75.9871C57.9763 75.8083 58.9528 75.9139 59.8375 76.2906C60.9088 76.7703 62.1338 76.7703 63.2051 76.2906C64.4736 75.7346 65.9224 75.7634 67.1678 76.3695C67.5193 76.5548 67.9105 76.6524 68.3078 76.6539C69.914 76.6539 71.2524 75.0358 71.5296 72.9015C71.2088 72.6674 70.9362 72.3736 70.7266 72.0363C69.7897 70.5139 68.3246 69.5339 66.6826 69.5339C65.0406 69.5339 63.6042 70.49 62.6625 71.9981C62.0901 72.9215 61.0769 73.4789 59.9904 73.468H59.9498C58.6783 73.468 57.5693 74.4933 57.0316 75.9871Z" fill="#FFAB2B"/>
<path opacity="0.1" d="M52.1367 69.2949L54.7323 70.9345L53.1549 68.0664C53.6017 67.7109 54.1541 67.5141 54.7251 67.5072H54.7682C54.9483 67.5092 55.1282 67.4956 55.3059 67.4665L56.1855 68.0234L55.8078 67.3399C56.4313 67.1212 56.9705 66.7124 57.3494 66.1711L58.9245 67.1702L57.9278 65.3609C58.8504 64.2543 60.0908 63.5755 61.4579 63.5755C63.0951 63.5755 64.565 64.5507 65.4971 66.0684C66.0645 66.9915 67.0838 67.5391 68.1668 67.5024H68.2529C70.0621 67.5024 71.5272 69.5507 71.5272 72.0794C71.5272 74.608 70.0621 76.6587 68.2529 76.6587C67.8555 76.6569 67.4644 76.5594 67.1128 76.3743C65.8673 75.7677 64.418 75.7397 63.1501 76.2978C62.0781 76.7741 60.8545 76.7741 59.7825 76.2978C58.5238 75.7516 57.0898 75.7795 55.8532 76.3743C55.5046 76.5552 55.1179 76.6503 54.7251 76.6515C52.9183 76.6515 51.4508 74.6033 51.4508 72.0722C51.4448 71.1038 51.6806 70.1492 52.1367 69.2949Z" fill="#FFAB2B"/>
<path d="M52.2658 161.343C55.5019 163.399 60.1649 161.319 63.4226 163.344C64.2639 163.865 64.9426 164.632 65.8126 165.105C66.8571 165.676 68.0856 165.779 69.2734 165.822C79.2208 166.207 89.3356 163.432 99.0344 165.674C101.747 166.3 104.4 167.318 107.18 167.467C111.981 167.727 116.582 165.385 121.389 165.256C128.678 165.06 135.841 169.938 142.875 168.014C145.189 167.38 147.311 166.03 149.699 165.803C152.359 165.564 154.916 166.723 157.502 167.4C166.673 169.79 176.224 165.918 185.705 165.629C191.888 165.44 198.011 166.788 204.19 167.098C208.583 167.318 212.985 167.01 217.373 166.704C219.046 166.587 220.798 166.444 222.199 165.526C223.599 164.608 224.46 162.636 223.595 161.202L52.2658 161.343Z" fill="#3F3D56"/>
<path opacity="0.1" d="M52.2658 161.343C55.5019 163.399 60.1649 161.319 63.4226 163.344C64.2639 163.865 64.9426 164.632 65.8126 165.105C66.8571 165.676 68.0856 165.779 69.2734 165.822C79.2208 166.207 89.3356 163.432 99.0344 165.674C101.747 166.3 104.4 167.318 107.18 167.467C111.981 167.727 116.582 165.385 121.389 165.256C128.678 165.06 135.841 169.938 142.875 168.014C145.189 167.38 147.311 166.03 149.699 165.803C152.359 165.564 154.916 166.723 157.502 167.4C166.673 169.79 176.224 165.918 185.705 165.629C191.888 165.44 198.011 166.788 204.19 167.098C208.583 167.318 212.985 167.01 217.373 166.704C219.046 166.587 220.798 166.444 222.199 165.526C223.599 164.608 224.46 162.636 223.595 161.202L52.2658 161.343Z" fill="black"/>
<path d="M52.2658 160.148C55.5019 162.204 60.1649 160.124 63.4226 162.149C64.2639 162.67 64.9426 163.437 65.8126 163.91C66.8571 164.481 68.0856 164.584 69.2734 164.627C79.2208 165.012 89.3356 162.237 99.0344 164.479C101.747 165.105 104.4 166.123 107.18 166.272C111.981 166.532 116.582 164.19 121.389 164.061C128.678 163.865 135.841 168.743 142.875 166.819C145.189 166.185 147.311 164.835 149.699 164.608C152.359 164.369 154.916 165.528 157.502 166.205C166.673 168.595 176.224 164.723 185.705 164.434C191.888 164.245 198.011 165.593 204.19 165.903C208.583 166.123 212.985 165.815 217.373 165.509C219.046 165.392 220.798 165.249 222.199 164.331C223.599 163.413 224.46 161.441 223.595 160.007L52.2658 160.148Z" fill="#3F3D56"/>
<g opacity="0.1">
<path d="M29.2424 130.703C29.2522 131.74 28.9858 132.761 28.4704 133.662C29.4997 135.5 29.4997 137.741 28.4704 139.579C28.7322 140.027 28.9286 140.51 29.0536 141.013C26.4446 137.574 24.0431 133.983 21.8619 130.258C21.9144 129.37 22.173 128.506 22.6171 127.734C22.1017 126.834 21.8353 125.813 21.8451 124.775C21.8421 124.074 21.9601 123.378 22.1941 122.717C22.3055 122.404 22.4471 122.102 22.6171 121.816C23.2911 120.672 24.3523 119.933 25.5426 119.933C26.7328 119.933 27.7964 120.672 28.4704 121.816C28.6343 122.094 28.7727 122.386 28.8839 122.689C29.1236 123.358 29.2449 124.064 29.2424 124.775C29.2522 125.813 28.9858 126.834 28.4704 127.734C28.9874 128.637 29.2539 129.662 29.2424 130.703Z" fill="#3F3D56"/>
<path d="M25.5425 123.712C27.5846 123.712 29.24 121.544 29.24 118.87C29.24 116.195 27.5846 114.027 25.5425 114.027C23.5005 114.027 21.8451 116.195 21.8451 118.87C21.8451 121.544 23.5005 123.712 25.5425 123.712Z" fill="#3F3D56"/>
<path d="M25.5425 117.794C27.5846 117.794 29.24 115.626 29.24 112.952C29.24 110.277 27.5846 108.109 25.5425 108.109C23.5005 108.109 21.8451 110.277 21.8451 112.952C21.8451 115.626 23.5005 117.794 25.5425 117.794Z" fill="#3F3D56"/>
<path d="M43.1812 83.3963C43.1873 87.3706 41.8507 91.2304 39.3882 94.3499C43.2019 99.1991 44.2186 105.683 42.0723 111.467C39.926 117.25 34.9257 121.501 28.8719 122.689C28.4465 122.775 28.0139 122.842 27.5765 122.894C26.2273 123.056 24.8642 123.063 23.5134 122.916C23.0641 122.868 22.6203 122.802 22.1821 122.717C20.25 122.36 18.3917 121.681 16.685 120.707C13.5039 114.209 10.7254 107.521 8.36521 100.681C8.98613 98.381 10.0667 96.2305 11.5416 94.3595C7.83746 89.6539 6.75876 83.3965 8.67352 77.7223L22.1248 82.2371L9.51004 75.6836C10.0656 74.5372 10.7427 73.4539 11.5296 72.4522C7.42902 67.2408 6.58179 60.1758 9.33399 54.1427C12.0862 48.1095 17.977 44.1183 24.6006 43.7991C31.2242 43.4799 37.4715 46.8861 40.7911 52.6267L27.7868 62.1869L41.8881 54.8733C43.7104 59.3998 43.5876 64.477 41.5488 68.9101L31.0325 68.8313L40.7505 70.4278C40.3379 71.1343 39.8772 71.8115 39.3714 72.4546C41.8371 75.5688 43.1795 79.4241 43.1812 83.3963Z" fill="#FFAB2B"/>
<path opacity="0.1" d="M43.1812 105.313C43.1798 113.779 37.1904 121.062 28.8838 122.698C28.4584 122.784 28.0258 122.851 27.5884 122.904C26.2393 123.065 24.8761 123.072 23.5253 122.925C23.076 122.878 22.6322 122.811 22.1941 122.727C20.2619 122.37 18.4036 121.691 16.6969 120.717C13.5114 114.216 10.7289 107.524 8.3652 100.681C8.98613 98.381 10.0667 96.2305 11.5416 94.3595C9.0778 91.237 7.74119 87.3737 7.74857 83.3963C7.74857 81.4077 41.7639 91.336 39.3881 94.3499C41.8528 97.4719 43.1895 101.335 43.1812 105.313Z" fill="black"/>
</g>
<g opacity="0.1">
<path d="M242.567 126.095C241.874 128.308 241.133 130.504 240.373 132.651C240.162 132.018 240.055 131.355 240.057 130.688C240.057 128.554 241.109 126.742 242.567 126.095Z" fill="#3F3D56"/>
<path d="M250 87.9589C250 92.1534 249.154 98.7811 247.61 106.362C246.258 113.021 244.571 119.606 242.555 126.095C241.862 128.308 241.121 130.504 240.361 132.651C239.489 135.088 238.568 137.459 237.605 139.728C232.264 137.767 228.183 133.368 226.627 127.895C225.071 122.422 226.228 116.535 229.739 112.058C226.035 107.339 224.957 101.071 226.871 95.3848L240.323 99.9092L227.708 93.3413C228.263 92.1927 228.941 91.107 229.728 90.1028C226.322 85.7609 225.125 80.0841 226.488 74.737C227.851 69.3899 231.619 64.9785 236.687 62.7964C242.117 66.5004 246.204 71.8599 248.339 78.076L246.009 79.8112L248.509 78.5134C249.347 81.0902 249.837 83.7678 249.964 86.4747H249.261L249.978 86.5918C250 87.0435 250 87.4976 250 87.9589Z" fill="#FFAB2B"/>
<path opacity="0.1" d="M247.622 106.362C246.27 113.021 244.582 119.606 242.567 126.095C241.874 128.308 241.133 130.504 240.373 132.651C239.5 135.088 238.58 137.459 237.617 139.728C232.276 137.767 228.195 133.368 226.639 127.895C225.083 122.422 226.24 116.535 229.751 112.058C227.29 108.929 225.955 105.063 225.961 101.083C225.961 99.8877 238.322 103.019 247.622 106.362Z" fill="black"/>
</g>
<path opacity="0.1" d="M249.969 86.587C249.969 86.5511 249.969 86.5129 249.969 86.4747C249.841 83.7678 249.352 81.0902 248.513 78.5134C248.466 78.3676 248.418 78.2194 248.368 78.076C246.232 71.8599 242.145 66.5004 236.716 62.7964C224.126 54.2185 207.125 56.3201 197.003 67.7055C196.491 64.8042 195.681 61.9633 194.587 59.228C186.612 60.2362 178.563 60.5362 170.535 60.1243C175.455 62.3926 180.555 64.245 185.784 65.662L185.598 66.3552C179.73 64.7618 174.023 62.6255 168.552 59.9737L166.9 59.173L168.731 59.2925C177.26 59.851 185.822 59.6053 194.304 58.5588C192.469 54.1816 189.924 50.1374 186.771 46.5894C173.014 45.2032 159.364 42.316 146.618 36.5918L146.912 35.9393C159.319 41.5153 172.615 44.381 186.037 45.7911C176.826 35.9168 163.508 30.9477 150.08 32.375C136.652 33.8022 124.676 41.4597 117.746 53.0497C116.475 40.7212 111.354 29.1061 103.109 19.8518C95.77 22.7844 88.1919 25.0801 80.4589 26.7137C68.8291 29.1855 56.927 30.1328 45.0526 29.5315C49.9719 31.7999 55.0726 33.6523 60.3011 35.0693L60.1147 35.7624C54.2486 34.1688 48.5436 32.0324 43.0736 29.381L41.4221 28.5803L43.2529 28.6998C63.4931 30.0292 83.7744 26.8158 102.612 19.2949C101.903 18.519 101.174 17.7605 100.423 17.0196C76.9001 17.4976 51.2811 17.2586 28.0879 8.81453C10.6126 19.6006 -0.0192202 38.6776 -4.51417e-06 59.2137C-4.51417e-06 70.3179 3.0521 85.588 8.3652 100.908C10.7328 107.765 13.5193 114.47 16.7089 120.985C18.3317 124.283 20.055 127.488 21.8642 130.557C24.0457 134.282 26.4472 137.873 29.0559 141.312C29.5244 141.929 29.9984 142.534 30.478 143.129C33.1514 146.512 36.1519 149.624 39.4359 152.419C40.1004 152.973 40.7688 153.501 41.4412 154.003C43.2435 155.366 45.163 156.565 47.1773 157.588C50.6836 159.345 54.3021 160.375 58.0043 160.523C58.3007 160.535 58.5994 160.543 58.8958 160.543V160.664H219.508V160.543H219.627C220.553 160.539 221.471 160.377 222.342 160.065C228.021 158.05 233.25 149.959 237.598 139.735C238.554 137.467 239.481 135.096 240.354 132.658C241.123 130.507 241.855 128.315 242.548 126.102C244.563 119.614 246.25 113.028 247.603 106.369C249.135 98.7882 249.993 92.1606 249.993 87.9661C250 87.4976 250 87.0435 249.969 86.587Z" fill="#FFAB2B"/>
<path d="M79.8422 153.63L84.4168 150.939C83.7977 149.883 83.0069 148.937 82.0769 148.141L73.4464 150.825L80.2103 146.85C76.8038 144.984 72.6655 145.054 69.324 147.034C65.9824 149.014 63.9335 152.61 63.934 156.494C63.934 162.565 68.8551 162.775 74.9283 162.775C81.0014 162.775 85.9225 162.565 85.9225 156.494C85.9247 154.957 85.6031 153.436 84.9785 152.032L79.8422 153.63Z" fill="#FFAB2B"/>
<path opacity="0.1" d="M81.0062 159.532C80.5193 159.044 79.9752 158.617 79.3857 158.26C78.554 157.708 77.696 157.144 76.7161 156.957C75.8556 156.793 74.9689 156.931 74.087 156.881C72.5656 156.788 71.1333 156.132 70.0693 155.041C69.4455 154.395 68.9531 153.607 68.2027 153.107C67.3924 152.576 66.3647 152.462 65.4039 152.593C65.1251 152.633 64.8489 152.69 64.577 152.763C64.1454 153.959 63.9254 155.222 63.9269 156.494C63.9269 162.565 68.848 162.775 74.9211 162.775C77.8681 162.775 80.5425 162.725 82.5167 161.981L82.1869 161.365C81.8718 160.707 81.4751 160.091 81.0062 159.532Z" fill="black"/>
<path d="M130.817 46.9694C135.536 46.9694 139.362 43.1439 139.362 38.4249C139.362 33.706 135.536 29.8805 130.817 29.8805C126.098 29.8805 122.273 33.706 122.273 38.4249C122.273 43.1439 126.098 46.9694 130.817 46.9694Z" fill="#3F3D56"/>
<path d="M125.86 104.892C126.742 111.08 125.667 117.39 123.991 123.411C123.678 124.532 123.341 125.662 122.756 126.668C122.17 127.674 121.355 128.54 120.667 129.486C119.233 131.46 118.391 133.788 117.605 136.092C115.437 142.468 113.617 148.956 112.151 155.528C112.063 155.798 112.063 156.088 112.151 156.358C112.359 156.836 112.99 156.898 113.509 156.895L120.215 156.859C120.454 156.401 120.012 155.903 119.737 155.464C118.781 153.977 119.699 152.046 120.543 150.49C122.593 146.711 124.18 142.699 125.27 138.54C125.729 136.788 126.102 134.998 126.848 133.346C127.749 131.343 129.161 129.62 130.308 127.746C131.642 125.569 132.615 123.205 133.58 120.832C134.928 117.538 136.288 114.204 136.819 110.686C137.318 107.383 137.072 104.018 136.747 100.693C136.778 100.492 136.71 100.289 136.565 100.147C136.42 100.005 136.216 99.9415 136.016 99.9761L127.017 99.5124C125.163 99.4168 124.723 99.0105 125.005 100.832C125.201 102.192 125.664 103.516 125.86 104.892Z" fill="#3F3D56"/>
<path opacity="0.1" d="M125.86 104.892C126.742 111.08 125.667 117.39 123.991 123.411C123.678 124.532 123.341 125.662 122.756 126.668C122.17 127.674 121.355 128.54 120.667 129.486C119.233 131.46 118.391 133.788 117.605 136.092C115.437 142.468 113.617 148.956 112.151 155.528C112.063 155.798 112.063 156.088 112.151 156.358C112.359 156.836 112.99 156.898 113.509 156.895L120.215 156.859C120.454 156.401 120.012 155.903 119.737 155.464C118.781 153.977 119.699 152.046 120.543 150.49C122.593 146.711 124.18 142.699 125.27 138.54C125.729 136.788 126.102 134.998 126.848 133.346C127.749 131.343 129.161 129.62 130.308 127.746C131.642 125.569 132.615 123.205 133.58 120.832C134.928 117.538 136.288 114.204 136.819 110.686C137.318 107.383 137.072 104.018 136.747 100.693C136.778 100.492 136.71 100.289 136.565 100.147C136.42 100.005 136.216 99.9415 136.016 99.9761L127.017 99.5124C125.163 99.4168 124.723 99.0105 125.005 100.832C125.201 102.192 125.664 103.516 125.86 104.892Z" fill="black"/>
<path d="M127.629 89.8494C125.801 92.4785 123.884 95.5043 124.491 98.652C124.952 101.042 126.773 102.894 128.492 104.627C135.361 111.525 142.115 119.187 144.453 128.64C145.055 131.083 145.347 133.59 145.865 136.049C146.807 140.519 148.494 144.792 150.167 149.039L154.651 160.356C157.5 160.426 160.088 158.707 161.128 156.054C160.54 156.009 159.773 155.44 159.429 154.962C157.517 152.316 157.125 148.913 156.635 145.686C156.092 142.12 155.368 138.583 154.641 135.048L151.429 119.407C151.059 117.603 150.688 115.796 150.206 114.018C148.336 107.13 144.794 100.633 144.247 93.511C144.166 92.4642 144.116 91.3145 143.406 90.5378C142.66 89.718 141.436 89.5818 140.33 89.5172C135.853 89.2304 131.991 88.793 127.629 89.8494Z" fill="#3F3D56"/>
<path d="M115.552 155.368C115.065 155.252 114.566 155.188 114.065 155.177C113.092 155.211 112.192 155.703 111.637 156.503C111.358 156.951 111.139 157.433 110.985 157.937L110.337 159.797C110.146 160.342 109.959 160.97 110.244 161.47C110.455 161.78 110.76 162.015 111.114 162.141C112.682 162.839 114.46 162.878 116.157 163.045C117.815 163.207 119.46 163.499 121.097 163.805C121.661 163.913 122.223 164.02 122.794 164.077C124.07 164.207 125.356 164.077 126.632 163.963L127.949 163.836C128.39 163.817 128.826 163.737 129.245 163.597C129.667 163.454 130.013 163.144 130.201 162.739C130.526 161.934 129.828 160.98 128.975 160.813C128.628 160.746 128.258 160.777 127.918 160.731C127.52 160.663 127.132 160.547 126.761 160.385C125.088 159.723 123.375 159.054 121.893 158.011C121.482 157.722 121.052 157.318 121.097 156.816C121.14 156.601 121.211 156.393 121.31 156.197C121.511 155.685 121.517 155.116 121.329 154.598C121.248 154.379 121.09 154.147 120.868 154.12C120.237 154.044 120.313 154.964 120.22 155.315C120.093 155.794 119.864 155.837 119.414 155.794C118.124 155.676 116.833 155.612 115.552 155.368Z" fill="#F2F2F2"/>
<path d="M153.284 161.79C153.295 162.724 153.617 163.628 154.197 164.359C154.374 164.578 154.596 164.756 154.847 164.883C155.225 165.039 155.634 165.103 156.042 165.072C157.18 165.047 158.304 164.82 159.362 164.4C159.735 164.231 160.118 164.087 160.509 163.967C161.002 163.867 161.5 163.795 162 163.752C163.977 163.468 165.712 162.302 167.622 161.711C168.192 161.57 168.752 161.386 169.295 161.162C170.05 160.805 170.662 160.206 171.262 159.625C171.616 159.311 171.92 158.946 172.165 158.542C172.517 157.89 172.538 157.108 172.553 156.37C172.565 156.254 172.546 156.137 172.495 156.033C172.441 155.957 172.366 155.898 172.28 155.863C171.699 155.576 171.011 155.719 170.368 155.832C168.045 156.245 165.667 156.169 163.308 156.092C162.848 156.156 162.402 155.902 162.223 155.473L161.326 154.039C161.071 153.628 160.664 153.157 160.201 153.298C159.83 153.411 159.68 153.865 159.694 154.254C159.708 154.644 159.828 155.031 159.754 155.411C159.647 155.834 159.37 156.194 158.989 156.405C158.613 156.61 158.211 156.764 157.794 156.864C156.475 157.237 154.94 157.66 153.92 158.63C153.169 159.319 153.239 160.86 153.284 161.79Z" fill="#F2F2F2"/>
<path d="M152.82 66.967C153.335 66.5737 153.777 66.0932 154.125 65.5473C154.426 64.9314 154.614 64.267 154.682 63.5851L155.057 61.2141C155.265 59.9068 155.509 58.5229 156.381 57.5263C157.254 56.5296 158.991 56.1735 159.878 57.1582C160.265 57.586 160.418 58.174 160.514 58.7452C161.066 62.1952 160.028 65.7098 157.689 68.3054C156.616 69.4814 155.299 70.4159 154.163 71.5272C153.174 72.4833 152.316 73.5803 151.403 74.62C149.195 77.1314 146.666 79.3413 143.881 81.1926C143.915 79.4144 144.142 77.5072 143.881 75.7409C143.688 74.4646 143.164 73.7763 144.4 72.9422C147.268 70.9919 150.163 69.228 152.82 66.967Z" fill="#FBBEBE"/>
<path d="M128.719 49.4766C128.626 50.7481 128.098 52.0483 127.046 52.782C130.024 53.8241 132.961 54.9729 135.858 56.2285C135.299 55.6907 135.129 54.8661 135.103 54.0918C135.029 52.0674 135.729 50.0765 136.752 48.3317C136.915 48.1104 137.009 47.8461 137.022 47.5717C136.989 47.0076 136.319 46.7471 135.77 46.6157C133.894 46.1607 131.98 45.883 130.053 45.7863C129.228 45.76 128.25 45.4995 128.437 46.5487C128.614 47.5287 128.793 48.4847 128.719 49.4766Z" fill="#FBBEBE"/>
<path d="M134.479 50.1577C138.337 50.1577 141.465 47.0299 141.465 43.1716C141.465 39.3133 138.337 36.1855 134.479 36.1855C130.621 36.1855 127.493 39.3133 127.493 43.1716C127.493 47.0299 130.621 50.1577 134.479 50.1577Z" fill="#FBBEBE"/>
<path d="M141.396 62.0411C141.152 61.5165 140.855 61.0184 140.509 60.5545C139.242 58.7357 137.942 56.9192 136.317 55.4135C135.086 54.3156 133.753 53.3368 132.337 52.4904C131.574 51.9668 130.734 51.5637 129.847 51.2954C129.321 51.1788 128.786 51.1061 128.248 51.0779L126.434 50.9297C126.275 50.9086 126.114 50.9135 125.956 50.9441C125.464 51.0684 125.239 51.6802 125.344 52.175C125.449 52.6697 125.822 53.0712 126.152 53.4465C126.233 57.1487 124.587 60.8007 124.364 64.4981C123.975 70.9632 127.921 76.9766 128.236 83.4465C128.269 83.7388 128.238 84.0348 128.145 84.3141C128.093 84.4479 128.014 84.5698 127.954 84.7012C127.768 85.1076 127.775 85.5688 127.741 86.0158C127.611 87.6098 126.913 89.1041 125.774 90.2271C126.07 90.5944 126.451 90.8847 126.883 91.0731C127.646 91.4054 128.556 91.434 129.367 91.6659C131.479 92.2825 133.645 92.9039 135.841 92.7725C136.114 92.1787 136.283 91.5424 136.341 90.8915C136.652 90.6979 137.01 91.1114 137.058 91.4747C137.106 91.838 137.036 92.261 137.297 92.5239C137.557 92.7868 137.887 92.7462 138.205 92.7055C139.546 92.5359 140.834 92.0841 142.149 91.7806C143.463 91.4771 144.869 91.3313 146.147 91.7663C146.405 91.4388 146.295 90.9536 146.085 90.5951C145.875 90.2366 145.576 89.9211 145.457 89.522C145.396 89.292 145.371 89.0544 145.38 88.8169C145.38 86.7734 145.801 84.7084 145.402 82.7032C145.284 82.1152 145.098 81.5416 144.978 80.9512C144.739 79.8064 144.775 78.6257 144.806 77.457C144.837 76.2882 144.696 75.0239 144.673 73.8384C144.672 73.3485 144.64 72.8592 144.577 72.3733C144.496 71.8642 144.338 71.3671 144.295 70.8532C144.166 69.5483 144.692 68.2529 144.613 66.9431C144.481 64.9546 142.17 63.8743 141.396 62.0411Z" fill="#FF6F61"/>
<path d="M125.629 61.1042C123.936 65.5927 123.109 70.3537 122.282 75.0813L120.37 86.1855C119.828 89.3236 119.283 92.4809 119.304 95.6644C119.304 96.5583 119.362 97.4689 119.128 98.3317C118.822 99.4646 118.062 100.409 117.486 101.439C116.317 103.542 115.928 105.991 116.386 108.353C116.582 109.345 117.118 110.471 118.124 110.586C118.951 110.676 119.665 110.019 120.148 109.34C121.257 107.784 121.807 105.906 122.299 104.056C123.884 98.0104 124.993 91.8498 125.614 85.631C125.673 84.8438 125.784 84.0613 125.946 83.2887C126.158 82.4922 126.428 81.7125 126.754 80.956C127.486 79.1428 128.218 77.3295 128.951 75.5162C130.641 71.3265 132.34 67.1176 134.661 63.2409C132.366 62.5813 129.978 61.8069 127.684 61.1544C127.022 60.9584 126.312 61.0755 125.629 61.1042Z" fill="#FBBEBE"/>
<path d="M129.606 64.5148C127.999 64.1682 126.338 64.2758 124.699 64.2352C124.466 64.2521 124.234 64.1916 124.039 64.0631C123.707 63.7787 123.848 63.2457 124.015 62.8418L124.809 60.9297C124.939 60.5345 125.156 60.1735 125.445 59.8733C125.848 59.5148 126.417 59.4264 126.953 59.3618C128.695 59.1611 130.488 59.0942 132.177 59.565C133.867 60.0358 135.456 61.1066 136.212 62.6912C136.527 63.3509 136.673 64.1826 136.255 64.7825C135.633 65.674 134.24 66.6706 133.2 66.1831C131.955 65.5927 131.001 64.8112 129.606 64.5148Z" fill="#FF6F61"/>
<path d="M138.145 32.3207C136.765 32.306 135.41 32.6965 134.25 33.4441C132.012 31.324 128.806 30.5733 125.86 31.4794C125.434 29.0353 123.243 27.2991 120.767 27.4431C118.29 27.5871 116.315 29.5655 116.175 32.0426C116.035 34.5196 117.775 36.7077 120.22 37.1295C119.362 40.0592 120.133 43.2239 122.241 45.4316C124.349 47.6393 127.475 48.5544 130.441 47.8324C133.407 47.1104 135.763 44.8608 136.62 41.9312C137.125 42.0344 137.638 42.0864 138.152 42.0865C141.522 42.0865 144.257 39.8996 144.257 37.2036C144.257 34.5076 141.511 32.3207 138.145 32.3207Z" fill="#3F3D56"/>
<path opacity="0.1" d="M139.362 39.6439C138.847 39.6453 138.334 39.5932 137.83 39.4885C137.59 40.3627 137.213 41.193 136.711 41.9479C137.184 42.039 137.664 42.0854 138.145 42.0865C141.295 42.0865 143.881 40.1745 144.214 37.7271C143.093 38.8934 141.336 39.6439 139.362 39.6439Z" fill="black"/>
<path opacity="0.1" d="M129.596 45.7481C126.885 45.7442 124.336 44.4557 122.726 42.2749C121.115 40.0942 120.633 37.2792 121.427 34.6869C119.092 34.2762 117.39 32.2483 117.39 29.8781C117.39 29.5847 117.416 29.2919 117.469 29.0033C116.255 30.3152 115.854 32.1858 116.425 33.8798C116.996 35.5738 118.447 36.8204 120.208 37.1295C118.838 41.6275 121.36 46.387 125.851 47.7799C130.342 49.1727 135.114 46.6754 136.53 42.1917C134.927 44.4255 132.345 45.7496 129.596 45.7481Z" fill="black"/>
<path d="M160.636 60.0601C160.661 60.0241 160.711 60.0157 160.747 60.0414C160.783 60.0671 160.792 60.1171 160.766 60.1531L160.09 61.1006C160.064 61.1366 160.014 61.1449 159.978 61.1192C159.942 61.0935 159.934 61.0435 159.959 61.0075L160.636 60.0601Z" fill="#3A3768"/>
<path d="M156.914 56.0861C156.929 56.0657 156.957 56.0609 156.977 56.0755C156.998 56.0901 157.003 56.1184 156.988 56.1389L156.788 56.419C156.773 56.4394 156.745 56.4442 156.725 56.4296C156.704 56.415 156.7 56.3867 156.714 56.3663L156.914 56.0861Z" fill="#3A3768"/>
<path d="M156.442 56.7404C156.458 56.7179 156.489 56.7126 156.512 56.7287C156.535 56.7448 156.54 56.7762 156.524 56.7987L156.142 57.3338C156.126 57.3563 156.095 57.3616 156.072 57.3455C156.049 57.3294 156.044 57.298 156.06 57.2755L156.442 56.7404Z" fill="#3A3768"/>
<path d="M155.853 57.5732C155.868 57.5517 155.898 57.5467 155.92 57.562C155.941 57.5774 155.946 57.6072 155.931 57.6287L155.542 58.1734C155.527 58.1949 155.497 58.1999 155.475 58.1846C155.454 58.1693 155.449 58.1394 155.464 58.1179L155.853 57.5732Z" fill="#3A3768"/>
<path d="M156.577 57.4047C157.385 56.2718 158.959 56.0087 160.092 56.8171L160.363 57.0105C161.495 57.8189 161.759 59.3926 160.95 60.5255L157.535 65.3121C156.726 66.445 155.153 66.708 154.02 65.8996L153.749 65.7063C152.616 64.8979 152.353 63.3242 153.161 62.1913L156.577 57.4047Z" fill="#3A3768"/>
<path opacity="0.1" d="M156.577 57.4047C157.385 56.2718 158.959 56.0087 160.092 56.8171L160.363 57.0105C161.495 57.8189 161.759 59.3926 160.95 60.5255L157.535 65.3121C156.726 66.445 155.153 66.708 154.02 65.8996L153.749 65.7063C152.616 64.8979 152.353 63.3242 153.161 62.1913L156.577 57.4047Z" fill="black"/>
<path d="M156.355 56.9592C157.164 55.8262 158.737 55.5632 159.87 56.3716L160.141 56.5649C161.274 57.3733 161.537 58.947 160.729 60.0799L157.313 64.8665C156.505 65.9994 154.931 66.2625 153.798 65.4541L153.527 65.2607C152.394 64.4523 152.131 62.8786 152.94 61.7457L156.355 56.9592Z" fill="#3A3768"/>
<path d="M161.396 57.8227L160.896 57.4641L160.853 57.5239C160.743 57.6761 160.531 57.7132 160.375 57.6075L158.779 56.4675C158.621 56.3546 158.585 56.1353 158.697 55.9775L158.74 55.9178L158.262 55.5832C158.171 55.517 158.056 55.4901 157.945 55.5085C157.833 55.5269 157.733 55.589 157.667 55.6812L152.151 63.413C152.015 63.6046 152.058 63.8704 152.249 64.0081L155.39 66.2476C155.482 66.3136 155.596 66.3401 155.708 66.3212C155.82 66.3024 155.919 66.2397 155.985 66.1472L161.501 58.4178C161.566 58.3251 161.592 58.2101 161.572 58.0983C161.553 57.9865 161.489 57.8873 161.396 57.8227Z" fill="#FFAB2B"/>
<path d="M159.348 56.4969C159.373 56.4625 159.421 56.4546 159.455 56.4791L159.942 56.8262C159.976 56.8507 159.984 56.8985 159.959 56.9328C159.935 56.9672 159.887 56.9752 159.853 56.9507L159.366 56.6036C159.332 56.5791 159.324 56.5313 159.348 56.4969Z" fill="#E6E8EC"/>
<path d="M160.11 57.1415C160.157 57.1415 160.196 57.103 160.196 57.0554C160.196 57.0079 160.157 56.9694 160.11 56.9694C160.062 56.9694 160.024 57.0079 160.024 57.0554C160.024 57.103 160.062 57.1415 160.11 57.1415Z" fill="#E6E8EC"/>
</svg>
