<svg width="18" height="18" viewBox="0 0 18 18" fill="none" xmlns="http://www.w3.org/2000/svg">
<path d="M9 0.5L9.25781 0.585938L13.3828 2.26172L13.8125 2.43359V2.90625V7.03125L17.5078 8.66406L17.9375 8.83594V9.30859V13.9922V14.4219L17.5938 14.5938L13.4688 16.9141L13.125 17.0859L12.8242 16.9141L9 15.0234L5.17578 16.9141L4.875 17.0859L4.53125 16.9141L0.40625 14.5938L0.0625 14.4219V13.9922V9.30859V8.83594L0.492188 8.66406L4.1875 7.03125V2.90625V2.43359L4.61719 2.26172L8.74219 0.585938L9 0.5ZM9 2.00391L6.76562 2.90625L9 3.76562L11.2344 2.90625L9 2.00391ZM5.5625 3.89453V7.07422L8.3125 8.32031V4.96875L5.5625 3.89453ZM12.4375 3.89453L9.6875 4.96875V8.32031L12.4375 7.07422V3.89453ZM4.875 8.27734L2.38281 9.35156L4.875 10.5977L7.36719 9.35156L4.875 8.27734ZM13.125 8.27734L11.4062 9.00781L10.6328 9.35156L13.125 10.5977L15.6172 9.35156L13.125 8.27734ZM1.4375 10.3828V13.6055L4.1875 15.1523V11.7578L1.4375 10.3828ZM16.5625 10.3828L13.8125 11.7578V15.1523L16.5625 13.6055V10.3828ZM8.3125 10.4688L5.5625 11.7578V15.1953L8.3125 13.8203V10.4688ZM9.6875 10.4688V13.8203L12.4375 15.1953V11.7578L9.6875 10.4688Z" fill="#778CA2"/>
</svg>
