<svg width="20" height="15" viewBox="0 0 20 15" fill="none" xmlns="http://www.w3.org/2000/svg">
<path d="M2.4375 0.875H17.5625C18.1354 0.875 18.6224 1.07552 19.0234 1.47656C19.4245 1.8776 19.625 2.36458 19.625 2.9375V12.5625C19.625 13.1354 19.4245 13.6224 19.0234 14.0234C18.6224 14.4245 18.1354 14.625 17.5625 14.625H2.4375C1.86458 14.625 1.3776 14.4245 0.976562 14.0234C0.575521 13.6224 0.375 13.1354 0.375 12.5625V2.9375C0.375 2.36458 0.575521 1.8776 0.976562 1.47656C1.3776 1.07552 1.86458 0.875 2.4375 0.875ZM2.4375 2.25C1.97917 2.25 1.75 2.47917 1.75 2.9375V12.5625C1.75 13.0208 1.97917 13.25 2.4375 13.25H17.5625C18.0208 13.25 18.25 13.0208 18.25 12.5625V2.9375C18.25 2.47917 18.0208 2.25 17.5625 2.25H2.4375ZM7.25 2.9375C8.2526 2.9375 9.16927 3.22396 10 3.79688C10.8307 3.22396 11.7474 2.9375 12.75 2.9375C14.0677 2.9375 15.1992 3.41016 16.1445 4.35547C17.0898 5.30078 17.5625 6.43229 17.5625 7.75C17.5625 9.06771 17.0898 10.1992 16.1445 11.1445C15.1992 12.0898 14.0677 12.5625 12.75 12.5625C11.7474 12.5625 10.8307 12.276 10 11.7031C9.16927 12.276 8.2526 12.5625 7.25 12.5625C5.93229 12.5625 4.80078 12.0898 3.85547 11.1445C2.91016 10.1992 2.4375 9.06771 2.4375 7.75C2.4375 6.43229 2.91016 5.30078 3.85547 4.35547C4.80078 3.41016 5.93229 2.9375 7.25 2.9375ZM7.25 4.3125C6.30469 4.3125 5.48828 4.65625 4.80078 5.34375C4.14193 6.0026 3.8125 6.80469 3.8125 7.75C3.8125 8.69531 4.14193 9.51172 4.80078 10.1992C5.48828 10.8581 6.30469 11.1875 7.25 11.1875C8.10938 11.1875 8.86849 10.901 9.52734 10.3281C9.24089 9.92708 9.02604 9.52604 8.88281 9.125H10.3867C10.5013 8.83854 10.5729 8.60938 10.6016 8.4375H8.71094C8.65365 8.17969 8.625 7.95052 8.625 7.75C8.625 7.54948 8.65365 7.32031 8.71094 7.0625H10.6016C10.5729 6.89062 10.5013 6.66146 10.3867 6.375H8.88281C9.02604 5.94531 9.24089 5.54427 9.52734 5.17188C8.86849 4.59896 8.10938 4.3125 7.25 4.3125ZM12.75 4.3125C12.1484 4.3125 11.5755 4.47005 11.0312 4.78516C11.7188 5.64453 12.0625 6.63281 12.0625 7.75C12.0625 8.86719 11.7188 9.85547 11.0312 10.7148C11.5755 11.0299 12.1484 11.1875 12.75 11.1875C13.6953 11.1875 14.4974 10.8581 15.1562 10.1992C15.8438 9.51172 16.1875 8.69531 16.1875 7.75C16.1875 6.80469 15.8438 6.0026 15.1562 5.34375C14.4974 4.65625 13.6953 4.3125 12.75 4.3125Z" fill="#778CA2"/>
</svg>
