<svg width="20" height="15" viewBox="0 0 20 15" fill="none" xmlns="http://www.w3.org/2000/svg">
<path d="M2.4375 0.875H17.5625C18.1354 0.875 18.6224 1.07552 19.0234 1.47656C19.4245 1.8776 19.625 2.36458 19.625 2.9375V12.5625C19.625 13.1354 19.4245 13.6224 19.0234 14.0234C18.6224 14.4245 18.1354 14.625 17.5625 14.625H2.4375C1.86458 14.625 1.3776 14.4245 0.976562 14.0234C0.575521 13.6224 0.375 13.1354 0.375 12.5625V2.9375C0.375 2.36458 0.575521 1.8776 0.976562 1.47656C1.3776 1.07552 1.86458 0.875 2.4375 0.875ZM2.4375 2.25C1.97917 2.25 1.75 2.47917 1.75 2.9375V12.5625C1.75 13.0208 1.97917 13.25 2.4375 13.25H17.5625C18.0208 13.25 18.25 13.0208 18.25 12.5625V2.9375C18.25 2.47917 18.0208 2.25 17.5625 2.25H2.4375ZM12.3203 5.25781C12.5208 5.25781 12.707 5.28646 12.8789 5.34375C13.0794 5.3724 13.237 5.40104 13.3516 5.42969L13.5234 5.51562L13.3086 6.54688C12.9935 6.31771 12.707 6.20312 12.4492 6.20312C11.8763 6.20312 11.5898 6.375 11.5898 6.71875C11.5898 6.83333 11.8763 7.04818 12.4492 7.36328C13.0508 7.67839 13.3516 8.07943 13.3516 8.56641C13.3516 9.02474 13.1081 9.42578 12.6211 9.76953C12.1628 10.0846 11.6901 10.2422 11.2031 10.2422C10.9167 10.2422 10.6589 10.2279 10.4297 10.1992C10.2005 10.1419 10.043 10.0846 9.95703 10.0273L9.82812 9.98438L10.043 8.95312C10.3581 9.125 10.7591 9.21094 11.2461 9.21094C11.7904 9.21094 12.0625 9.06771 12.0625 8.78125C12.0625 8.63802 11.9766 8.50911 11.8047 8.39453C11.6328 8.2513 11.4323 8.13672 11.2031 8.05078C10.974 7.96484 10.7734 7.80729 10.6016 7.57812C10.4297 7.34896 10.3438 7.0625 10.3438 6.71875C10.3438 6.28906 10.5156 5.94531 10.8594 5.6875C11.2031 5.40104 11.6901 5.25781 12.3203 5.25781ZM6.69141 5.34375H8.02344L6.13281 10.0703H4.75781L3.72656 6.24609C4.44271 6.61849 5.01562 7.29167 5.44531 8.26562L5.53125 8.73828L6.69141 5.34375ZM8.53906 5.34375H9.82812L9.05469 10.0703H7.76562L8.53906 5.34375ZM15.3711 5.34375H16.7031L17.6484 10.0703H16.5312L16.4023 9.42578H14.8125L14.5547 10.0703H13.3086L15.3711 5.34375ZM2.35156 5.34375H4.24219C4.41406 5.34375 4.55729 5.38672 4.67188 5.47266C4.78646 5.55859 4.85807 5.64453 4.88672 5.73047L4.92969 5.85938L5.35938 8.00781C5.21615 7.4349 4.88672 6.93359 4.37109 6.50391C3.85547 6.07422 3.38281 5.77344 2.95312 5.60156L2.35156 5.34375ZM15.8438 6.71875L15.1562 8.52344H16.1875L15.8438 6.71875Z" fill="#778CA2"/>
</svg>
